<?xml version="1.0" standalone="no"?>
<!DOCTYPE svg PUBLIC "-//W3C//DTD SVG 20010904//EN"
 "http://www.w3.org/TR/2001/REC-SVG-20010904/DTD/svg10.dtd">
<svg version="1.0" xmlns="http://www.w3.org/2000/svg"
 width="1024.000000pt" height="1024.000000pt" viewBox="0 0 1024.000000 1024.000000"
 preserveAspectRatio="xMidYMid meet">
<metadata>
Created by potrace 1.14, written by Peter Selinger 2001-2017
</metadata>
<g transform="translate(0.000000,1024.000000) scale(0.100000,-0.100000)"
fill="#000000" stroke="none">
<path d="M5020 8993 c-792 -34 -1553 -318 -2157 -807 -650 -526 -1130 -1292
-1297 -2068 -53 -244 -67 -368 -73 -634 -9 -404 29 -712 129 -1024 40 -126
119 -322 168 -421 23 -44 38 -85 34 -91 -4 -6 -3 -8 2 -5 5 3 23 -20 39 -51
16 -31 39 -74 52 -94 12 -20 24 -42 25 -49 2 -6 13 -23 25 -36 12 -14 19 -31
16 -39 -3 -9 0 -14 8 -12 9 2 13 -4 11 -16 -2 -10 1 -15 7 -12 5 3 19 -7 30
-23 13 -18 17 -32 11 -36 -9 -6 -14 1 -11 17 0 4 -8 6 -19 5 -12 -1 -18 -7
-16 -14 3 -6 -7 -21 -22 -33 -15 -11 -20 -17 -11 -14 10 3 20 1 24 -5 8 -14
-21 -44 -35 -36 -15 9 -12 -4 4 -21 11 -11 16 -11 20 -1 3 6 4 0 2 -15 -2 -22
1 -28 15 -28 11 0 19 -7 19 -15 0 -8 8 -15 19 -15 13 0 20 -10 25 -32 3 -17 4
-33 1 -36 -3 -3 -8 10 -12 28 -6 33 -6 33 -15 10 -7 -18 -11 -21 -17 -11 -6
10 -10 9 -14 -4 -4 -9 -3 -14 2 -11 10 7 41 -21 58 -50 9 -17 9 -24 0 -34 -7
-7 -1 -6 13 3 39 27 50 22 50 -23 0 -22 -4 -40 -10 -40 -5 0 -10 -7 -10 -16 0
-9 -6 -14 -12 -11 -7 2 -12 10 -11 16 5 19 -14 12 -20 -8 -3 -13 0 -18 8 -15
7 3 20 -4 28 -16 11 -15 16 -18 20 -8 3 7 6 -4 6 -25 1 -59 29 -182 66 -292
24 -72 30 -102 21 -108 -7 -6 -5 -7 6 -4 11 4 20 -4 29 -26 7 -18 30 -61 51
-96 21 -35 36 -66 34 -68 -2 -3 -9 5 -16 16 -6 12 -15 21 -20 21 -6 0 0 -11
12 -25 11 -13 24 -22 28 -20 7 4 40 -37 40 -50 0 -3 -8 -5 -17 -6 -15 0 -15
-2 2 -8 11 -5 23 -7 28 -4 4 2 7 0 7 -5 0 -15 -37 -21 -50 -8 -8 8 -8 2 1 -17
7 -15 15 -23 18 -18 10 16 42 -15 35 -33 -3 -9 -1 -23 6 -31 10 -12 9 -15 -7
-15 -12 0 -19 -8 -20 -21 -2 -19 -1 -20 10 -5 10 14 15 15 30 4 15 -11 16 -18
8 -41 -9 -22 -8 -27 5 -27 11 0 13 -6 9 -21 -6 -17 1 -28 26 -51 28 -24 30
-29 12 -23 -18 5 -22 3 -17 -9 3 -9 10 -16 15 -16 5 0 8 -5 7 -11 -2 -6 4 -13
14 -14 9 -2 24 -8 35 -14 16 -9 16 -10 -7 -11 -17 0 -21 -3 -12 -8 7 -5 10
-16 6 -25 -3 -9 -2 -17 4 -17 5 0 12 7 16 15 7 20 22 19 30 -1 5 -14 4 -15 -8
-5 -11 9 -15 8 -18 -6 -7 -27 1 -43 23 -43 10 0 19 -4 19 -10 0 -5 -8 -7 -17
-3 -15 5 -16 4 -5 -8 11 -12 15 -12 25 1 7 8 23 16 37 18 22 2 23 1 8 -8 -22
-13 -23 -30 -4 -30 8 0 18 -4 21 -10 4 -6 -6 -8 -25 -6 -20 2 -29 -1 -27 -8 2
-6 11 -10 21 -8 9 2 16 -4 16 -13 0 -8 7 -15 16 -15 8 0 12 -5 9 -10 -4 -6
-11 -8 -16 -5 -5 4 -9 3 -9 0 0 -3 13 -11 30 -16 25 -9 29 -15 24 -34 -3 -12
-1 -26 4 -29 6 -4 8 2 5 14 -6 21 9 24 56 11 22 -6 23 -8 8 -23 -16 -15 -15
-18 13 -31 21 -11 30 -12 34 -3 2 6 5 4 5 -5 1 -9 -6 -19 -14 -23 -13 -5 -13
-8 2 -25 9 -11 19 -18 21 -16 3 3 -1 11 -8 20 -8 10 -9 15 -1 15 6 0 14 0 19
0 4 0 7 -6 7 -12 0 -18 28 -45 41 -41 6 2 9 -11 7 -34 -3 -31 -1 -34 6 -17 12
28 28 37 37 23 4 -7 3 -9 -4 -5 -16 10 -26 -14 -12 -27 10 -9 11 -9 6 1 -5 7
-1 12 9 12 11 0 15 -5 12 -14 -4 -11 2 -14 24 -14 35 1 41 -3 29 -22 -8 -13
-13 -13 -31 -2 -11 7 -24 11 -27 8 -3 -3 0 -6 7 -6 9 0 11 -8 8 -21 -5 -17 -3
-18 9 -8 12 9 18 9 27 0 9 -9 9 -14 -3 -21 -11 -7 -11 -10 -2 -10 7 0 15 7 18
15 4 8 16 15 28 14 20 0 20 -1 1 -9 -11 -5 -15 -9 -10 -9 6 -1 3 -6 -5 -11
-11 -8 -7 -9 15 -5 25 5 27 4 13 -5 -10 -6 -18 -15 -18 -20 0 -16 30 -11 36 5
4 8 10 12 15 9 5 -3 7 -9 5 -12 -2 -4 2 -18 10 -32 l14 -25 -6 30 c-6 28 -6
29 9 10 8 -11 13 -33 11 -50 -2 -19 0 -25 5 -17 11 18 53 12 59 -8 4 -12 2
-13 -9 -2 -7 6 -18 12 -23 12 -6 0 0 -7 12 -16 22 -15 58 -12 48 4 -2 4 -1 14
3 20 6 10 11 9 22 -4 8 -10 9 -15 3 -11 -7 4 -14 -3 -18 -18 -4 -15 -14 -25
-24 -25 -10 0 -13 -3 -6 -8 6 -4 14 -14 17 -22 4 -10 6 -8 6 8 1 16 7 22 25
22 14 0 28 -4 31 -10 3 -5 1 -10 -6 -10 -7 0 -9 -3 -6 -7 4 -3 2 -12 -5 -20
-8 -11 -7 -12 5 -7 9 3 21 18 27 32 9 23 10 23 6 4 -3 -18 -1 -22 10 -18 10 4
13 2 7 -7 -15 -24 -11 -37 10 -33 28 4 67 -13 67 -30 0 -8 7 -11 18 -8 15 5
15 4 -2 -10 -17 -14 -17 -15 6 -12 13 1 29 5 35 9 6 4 13 0 17 -8 3 -9 0 -15
-9 -15 -8 0 -15 -5 -15 -11 0 -5 4 -8 9 -5 14 9 41 -5 41 -20 0 -12 4 -12 20
-4 26 14 17 30 -18 31 -15 0 -22 3 -15 5 7 3 10 13 7 22 -5 15 -4 15 6 0 6
-10 17 -18 25 -18 7 0 16 -9 20 -19 4 -13 12 -18 23 -15 11 4 9 -1 -7 -13 -22
-19 -22 -20 -3 -18 12 1 31 10 43 21 12 10 19 13 15 6 -4 -7 -1 -15 9 -18 10
-4 15 -14 12 -25 -4 -16 -1 -18 21 -12 24 6 26 5 13 -10 -13 -16 -11 -16 15
-2 29 15 60 4 47 -18 -4 -7 0 -8 11 -4 10 4 19 7 21 7 2 0 -8 12 -23 27 -15
15 -30 27 -34 25 -10 -3 -10 12 -2 21 8 7 44 -31 44 -45 0 -5 9 -4 19 2 24 12
42 13 22 1 -18 -12 -3 -34 19 -28 12 3 17 0 13 -8 -5 -16 26 -35 58 -35 17 0
19 3 10 14 -10 12 -8 13 9 9 12 -3 19 -11 16 -19 -3 -7 4 -16 15 -19 21 -7 26
-25 7 -25 -6 0 -8 -3 -4 -7 4 -5 14 0 21 11 9 11 18 15 27 10 7 -5 25 -9 40
-9 26 -1 54 -15 29 -15 -7 0 -9 -5 -6 -10 8 -14 52 -13 61 2 4 6 3 8 -2 5 -6
-3 -16 -2 -24 4 -12 7 -10 9 7 9 12 0 25 -4 28 -10 11 -18 27 -11 22 10 -7 29
2 25 13 -6 6 -14 14 -23 19 -19 5 3 12 1 16 -5 8 -13 -18 -13 -32 1 -8 8 -13
7 -18 -2 -5 -7 -4 -10 2 -6 6 4 16 1 22 -7 7 -8 23 -17 37 -20 14 -4 22 -11
19 -16 -12 -19 29 4 53 29 13 14 22 19 19 11 -14 -44 52 -61 95 -25 l23 20
-17 -21 c-20 -23 -23 -50 -8 -59 6 -3 7 1 4 9 -4 11 0 16 11 16 9 0 13 -5 10
-10 -4 -6 5 -10 20 -10 17 0 24 4 19 12 -4 7 -3 8 4 4 7 -4 12 -14 12 -22 0
-8 5 -12 11 -9 6 4 8 13 5 21 -10 26 9 14 21 -14 8 -17 21 -28 32 -28 14 0 17
4 10 12 -6 8 -6 14 -1 18 6 3 12 -1 15 -8 4 -9 15 -13 30 -10 14 2 30 -2 37
-11 7 -8 19 -15 27 -15 8 0 12 -4 8 -9 -3 -5 0 -13 6 -17 8 -4 9 -3 5 4 -4 7
-1 12 8 12 8 0 17 -4 21 -10 3 -5 12 -7 20 -3 9 3 15 -1 15 -8 0 -10 2 -11 8
-2 10 16 48 21 44 5 -1 -8 2 -11 8 -7 6 3 8 11 5 16 -4 5 1 9 9 9 9 0 16 -7
16 -16 0 -12 7 -15 25 -12 13 3 26 0 29 -6 2 -6 5 -3 5 7 1 9 7 17 14 18 6 0
21 2 31 4 22 4 56 -11 56 -25 0 -6 -5 -10 -11 -10 -5 0 -7 5 -3 12 4 7 3 8 -4
4 -6 -4 -9 -13 -5 -22 5 -13 8 -13 23 1 15 13 23 14 40 5 12 -6 24 -9 27 -6 3
3 -5 10 -18 15 -13 5 -18 10 -11 10 8 1 22 11 31 23 14 17 18 18 18 5 0 -10
-4 -17 -9 -17 -14 0 -9 -28 8 -44 8 -9 21 -16 27 -16 7 0 4 7 -7 15 -21 16
-15 50 7 42 19 -7 41 8 33 22 -4 6 -12 9 -17 5 -5 -3 -7 -10 -4 -15 3 -5 -1
-6 -9 -3 -13 5 -13 8 -1 20 13 13 45 10 45 -5 0 -3 9 -17 20 -31 15 -18 18
-20 14 -6 -5 13 -3 17 5 15 7 -3 12 -8 11 -13 -2 -11 22 -26 32 -20 14 9 9 22
-12 27 -11 3 -20 11 -20 17 0 10 3 10 15 0 9 -7 15 -8 15 -2 0 5 7 12 14 15
11 4 13 1 9 -10 -4 -10 -2 -14 4 -10 6 4 13 1 15 -5 3 -9 9 -6 18 8 l13 21 22
-25 22 -26 32 27 c31 25 49 27 78 5 6 -5 9 -16 6 -24 -3 -8 0 -14 7 -14 6 0 8
5 5 10 -3 6 -1 10 6 10 9 0 9 3 0 14 -9 11 -8 15 5 20 22 9 24 8 18 -9 -4 -8
-2 -15 4 -15 5 0 12 7 16 15 3 8 11 15 17 15 8 0 8 -4 -1 -15 -6 -8 -8 -20 -4
-26 5 -9 10 -6 15 9 6 15 17 22 34 22 14 0 25 -4 25 -10 0 -5 5 -10 11 -10 5
0 8 4 5 9 -4 5 3 7 14 4 14 -4 20 -1 18 8 -2 10 7 14 27 14 19 0 30 5 30 14 0
9 11 15 27 15 l28 2 -27 -22 c-14 -11 -23 -26 -19 -32 3 -6 2 -13 -4 -17 -5
-3 -10 2 -10 12 0 15 -2 16 -10 3 -6 -9 -5 -17 2 -21 17 -11 38 1 35 19 -2 18
3 22 28 22 9 0 12 -6 8 -17 -4 -11 2 -8 18 8 13 13 23 27 21 32 -1 4 4 6 10 5
8 -2 12 5 10 17 -2 11 -2 18 0 15 2 -3 10 -14 18 -24 10 -13 10 -17 3 -12 -7
4 -13 2 -13 -4 0 -6 10 -8 25 -4 14 3 31 1 39 -5 11 -9 13 -6 10 14 -1 16 2
25 9 22 6 -2 20 5 31 15 11 10 26 18 33 18 8 0 11 5 7 11 -5 8 -1 8 13 0 11
-6 24 -7 28 -3 5 4 5 -1 2 -10 -3 -9 1 -22 9 -29 12 -10 13 -9 9 4 -4 8 -2 18
4 21 6 4 8 13 4 21 -3 8 1 15 8 15 7 0 9 -3 6 -6 -11 -11 13 -44 31 -44 15 1
15 3 -3 16 -19 16 -19 16 5 9 21 -7 23 -6 12 7 -10 13 -9 16 8 21 17 4 19 2
14 -21 -6 -26 -6 -27 11 -7 16 20 16 20 12 -3 -4 -14 0 -22 9 -22 13 0 18 17
15 50 -2 13 -1 13 8 0 6 -8 11 -11 11 -7 0 16 40 -14 40 -31 0 -14 2 -15 9 -2
6 8 7 18 4 24 -4 5 0 7 9 4 8 -4 21 -2 29 4 11 8 10 9 -3 4 -10 -3 -18 -1 -18
4 0 5 -7 7 -15 4 -10 -4 -15 0 -15 12 0 11 3 15 8 9 8 -12 57 -13 68 -2 4 4
14 1 22 -6 10 -8 13 -8 9 -1 -10 16 24 27 37 13 8 -9 6 -10 -8 -5 -16 5 -17 4
-6 -9 11 -14 15 -14 29 -1 9 8 21 15 26 15 6 1 10 7 10 14 0 6 7 12 15 12 8 0
19 6 23 13 4 6 14 12 22 12 8 0 21 10 29 22 9 12 19 19 23 15 3 -4 -2 -14 -13
-21 -10 -8 -16 -17 -12 -21 3 -3 15 4 27 16 16 17 18 26 9 36 -6 7 -8 16 -4
20 3 3 6 1 6 -5 0 -14 73 13 78 28 5 15 22 12 22 -4 0 -21 23 -36 40 -26 9 6
17 5 21 -2 4 -7 9 -7 13 1 4 6 2 11 -4 11 -6 0 -8 5 -4 11 5 8 1 8 -14 0 -43
-23 -45 -10 -2 15 25 14 49 31 53 37 6 8 7 6 4 -5 -3 -9 3 -24 13 -33 11 -10
17 -22 13 -28 -4 -6 -1 -7 6 -3 9 6 9 12 -3 25 -18 19 -21 51 -6 51 5 0 7 -6
4 -14 -4 -9 3 -12 23 -11 67 5 69 5 54 14 -20 13 -5 30 24 26 19 -2 23 1 15
10 -13 16 4 30 22 19 7 -4 8 -3 4 4 -4 7 -2 12 3 12 6 0 11 5 11 11 0 8 -4 8
-14 0 -11 -9 -15 -8 -20 4 -3 9 -2 13 4 10 6 -3 10 -1 10 6 0 10 3 10 11 2 14
-14 39 -6 39 13 0 8 7 14 16 14 9 0 12 5 8 12 -5 7 -3 8 5 4 9 -6 8 -13 -5
-27 -16 -18 -16 -19 -1 -14 9 4 19 15 22 26 4 11 11 16 17 13 6 -4 8 -3 5 2
-3 6 -2 16 4 24 7 12 9 10 9 -7 0 -15 6 -23 18 -23 14 0 15 2 2 10 -10 7 -12
12 -4 18 6 4 10 16 8 27 -2 18 -2 19 10 3 12 -16 13 -16 28 2 11 12 24 17 37
13 13 -3 21 -1 21 6 0 7 5 9 10 6 6 -3 10 -2 10 4 0 5 -6 11 -12 14 -7 2 -1 8
15 12 15 4 27 11 27 16 0 5 -8 6 -17 3 -16 -5 -16 -4 1 10 10 8 16 21 13 29
-3 8 -1 20 4 28 8 12 10 12 8 -1 -3 -35 2 -61 11 -55 6 4 8 11 5 16 -4 5 -2 9
4 9 5 0 11 -5 13 -12 2 -6 9 -8 16 -4 6 3 9 13 6 21 -4 8 -10 12 -15 9 -5 -3
-8 0 -7 7 5 22 41 37 62 26 14 -7 21 -5 28 7 5 9 14 13 21 9 16 -10 56 -10 50
0 -3 5 -13 7 -23 4 -10 -2 -22 4 -29 15 -7 12 -8 17 -2 13 6 -3 11 -1 11 4 0
6 8 11 19 11 14 0 17 6 14 28 -4 25 -3 26 10 9 14 -17 15 -16 20 4 4 13 10 18
18 13 8 -4 10 -3 5 5 -6 9 -12 9 -24 0 -15 -11 -15 -11 0 6 14 15 20 16 32 5
21 -17 20 -6 -1 16 -16 16 -16 16 5 10 21 -7 26 3 21 41 0 3 6 10 15 15 25 14
19 26 -11 22 -17 -2 -20 -1 -8 3 11 3 25 13 32 22 12 15 13 14 7 -1 -4 -11 -1
-18 6 -18 6 0 8 -5 5 -10 -4 -6 5 -5 19 2 24 10 25 13 11 34 -13 20 -12 23 1
28 8 3 13 2 10 -2 -2 -4 7 -9 20 -10 27 -2 45 25 24 38 -7 4 -9 13 -6 19 4 6
3 11 -2 11 -18 0 -21 -29 -5 -38 9 -6 12 -12 5 -16 -18 -11 -33 19 -23 47 5
14 7 29 3 33 -4 5 0 3 8 -3 17 -15 44 -17 35 -3 -3 5 -1 10 4 10 20 0 11 18
-11 23 -12 4 -19 9 -16 12 3 4 16 2 27 -5 18 -9 21 -8 21 12 1 21 2 22 14 6 7
-10 16 -15 19 -11 4 3 7 2 7 -4 0 -5 7 -10 15 -10 8 0 15 4 15 8 0 7 -24 19
-36 18 -14 -1 -22 26 -12 38 11 14 32 7 23 -7 -11 -18 16 -21 33 -4 15 16 15
17 0 12 -9 -4 -22 0 -29 8 -16 19 -4 30 16 14 13 -11 15 -9 13 10 -2 13 3 25
12 27 13 4 13 3 0 -7 -13 -10 -13 -11 0 -7 8 2 15 8 15 13 1 5 7 19 14 32 11
20 10 25 -5 36 -12 9 -14 15 -6 20 7 4 12 2 12 -4 0 -6 5 -8 10 -5 6 4 8 10 5
15 -3 5 0 12 7 16 8 5 7 9 -5 13 -13 5 -12 8 7 17 21 10 24 9 22 -12 0 -13 -7
-24 -14 -24 -7 0 -10 -4 -7 -10 10 -16 23 -11 30 11 6 17 9 19 16 8 7 -12 9
-11 9 2 0 8 -5 20 -12 27 -9 9 -6 14 13 21 13 5 20 10 15 10 -5 1 -2 8 5 17
11 14 11 18 -2 28 -11 7 -14 18 -9 31 4 11 6 23 3 27 -2 4 4 5 13 1 14 -5 16
-3 11 11 -5 12 -3 16 5 14 7 -3 21 4 32 14 15 14 23 15 35 6 12 -9 12 -8 -1 7
-14 15 -20 16 -33 5 -13 -11 -15 -10 -9 4 3 9 10 16 15 16 5 0 9 8 9 18 0 10
7 27 16 38 8 10 12 12 8 4 -7 -13 -6 -13 10 -1 13 11 14 16 5 22 -10 6 -10 11
0 23 11 12 10 21 -3 47 -20 41 -20 43 3 22 10 -10 18 -22 17 -27 -1 -6 8 -11
19 -13 l20 -3 -20 9 c-11 5 -15 10 -8 10 13 1 12 26 -2 38 -4 4 -5 2 -1 -4 5
-9 2 -11 -10 -6 -15 5 -15 7 0 15 22 13 9 30 -17 24 -15 -4 -13 -2 5 7 24 11
25 14 10 24 -15 10 -14 11 6 6 22 -5 26 -13 23 -44 -1 -9 5 -19 13 -22 10 -4
13 -1 9 9 -3 8 0 21 7 29 11 13 10 14 -4 9 -11 -4 -16 -1 -16 10 0 9 -4 16 -9
16 -5 0 -8 7 -7 15 2 17 35 55 48 55 5 0 -2 -10 -16 -23 -20 -17 -24 -26 -16
-37 9 -13 12 -12 25 4 8 10 12 23 8 29 -4 6 2 8 15 5 27 -7 24 10 -6 40 -22
21 -22 24 -7 45 8 12 19 20 23 18 29 -14 52 -20 47 -10 -4 6 1 17 11 24 22 17
11 20 -17 5 -16 -9 -19 -7 -19 10 0 13 4 19 11 14 7 -4 10 -1 7 6 -7 23 -29
23 -35 1 -6 -23 -18 -27 -29 -9 -4 6 -3 8 4 4 6 -3 13 3 17 13 3 11 15 23 26
26 10 4 19 11 19 16 0 6 -3 8 -7 6 -5 -3 -14 1 -21 9 -11 12 -10 13 7 11 10
-2 26 -9 35 -16 11 -9 16 -10 16 -2 0 6 -4 11 -10 11 -17 0 -11 18 8 23 16 4
16 5 -2 12 -13 6 -21 3 -28 -9 -11 -20 -30 -12 -22 9 4 8 10 12 15 9 5 -3 9 3
9 13 0 15 2 16 10 3 8 -13 10 -12 10 3 0 9 4 17 10 17 5 0 7 -8 4 -17 -4 -10
3 -4 15 12 28 41 26 49 -6 28 -23 -14 -26 -15 -16 -2 7 9 10 19 6 22 -3 4 2 7
13 8 33 1 56 7 66 17 6 6 -1 8 -19 5 -22 -4 -25 -2 -13 6 13 9 13 11 -2 11
-10 0 -18 4 -18 10 0 5 8 6 17 3 13 -5 15 -2 10 11 -4 10 -7 20 -7 22 0 3 -6
2 -12 -1 -7 -4 -5 0 4 7 14 12 15 15 2 24 -13 8 -13 11 1 29 10 13 14 15 13 5
-2 -10 6 -15 25 -16 27 -1 38 18 17 31 -5 3 -10 -1 -10 -10 0 -10 -5 -13 -12
-9 -8 5 -5 13 10 25 12 9 22 22 22 28 0 5 7 14 17 19 19 11 25 54 9 64 -7 5
-4 8 7 9 31 3 35 4 44 12 4 5 -3 17 -17 27 -22 17 -23 20 -8 25 14 6 15 11 7
26 -8 15 -5 26 12 50 20 28 22 29 34 12 12 -16 13 -15 12 10 -2 20 -6 25 -19
21 -20 -6 -30 7 -19 25 6 9 11 10 15 2 12 -19 26 -12 25 12 0 19 -1 20 -8 4
-6 -17 -9 -17 -19 -4 -10 12 -10 16 3 21 8 3 15 10 15 17 0 6 -7 8 -16 5 -8
-3 -12 -2 -9 4 3 6 15 10 26 10 11 0 17 -4 14 -10 -3 -5 -2 -10 3 -10 5 0 9
15 10 33 1 27 -1 29 -10 13 -8 -15 -12 -16 -19 -5 -12 20 -11 31 3 23 8 -5 9
0 5 15 -4 18 -3 20 9 10 12 -10 13 -9 8 7 -6 16 -5 17 7 6 16 -14 33 -16 24
-2 -3 5 -2 10 3 10 6 0 13 8 16 17 6 15 5 16 -11 1 -19 -16 -57 -18 -70 -3 -5
4 -2 5 5 1 8 -5 12 0 12 13 0 11 5 23 10 26 6 3 10 1 10 -4 0 -6 6 -11 14 -11
9 0 12 7 9 21 -3 12 0 24 6 28 8 6 4 13 -14 25 -22 14 -24 20 -14 32 10 12 14
12 20 2 7 -10 9 -9 9 5 0 19 -20 23 -36 7 -7 -7 -11 -6 -11 5 0 9 9 15 23 15
15 0 23 7 26 25 3 14 1 25 -6 25 -7 0 -7 3 -1 8 6 4 16 14 23 23 11 14 9 17
-13 17 -14 0 -22 -5 -18 -11 3 -6 1 -7 -6 -3 -14 9 -3 29 13 23 6 -3 25 1 41
8 17 7 23 14 15 14 -11 1 -12 3 -3 9 8 5 9 13 3 22 -8 13 -10 12 -10 -2 0 -10
-5 -18 -11 -18 -6 0 -8 9 -4 21 5 15 4 19 -5 14 -6 -4 -2 11 9 34 12 23 24 41
27 41 3 0 3 -4 0 -8 -2 -4 4 -9 15 -9 17 -2 18 0 3 14 -16 16 -12 65 7 71 5 2
7 7 4 12 -2 4 16 68 41 141 129 384 171 685 161 1152 -6 293 -22 427 -80 668
-128 528 -363 987 -765 1494 -366 461 -936 869 -1512 1083 -439 163 -962 253
-1370 235z m490 -299 c574 -63 1219 -331 1673 -695 430 -344 775 -780 1002
-1263 125 -268 219 -578 266 -881 26 -167 37 -549 20 -720 -15 -152 -42 -319
-50 -306 -4 5 -7 -9 -7 -32 -1 -23 -6 -43 -12 -45 -5 -1 -8 -13 -5 -25 5 -22
5 -22 -10 -2 -9 11 -17 26 -17 33 0 17 -17 15 -24 -4 -4 -10 -2 -13 6 -8 7 4
8 3 4 -4 -12 -20 -29 -13 -23 8 3 11 2 20 -3 20 -11 0 -23 -68 -14 -82 4 -7 3
-8 -4 -4 -7 4 -12 1 -12 -8 0 -27 -75 -235 -125 -349 -60 -137 -168 -325 -255
-447 -71 -99 -94 -123 -122 -128 -37 -6 -25 24 55 136 117 161 181 266 247
407 197 414 277 889 241 1420 -20 298 -45 425 -134 695 -84 253 -196 475 -365
725 -143 212 -241 331 -417 509 -441 446 -921 721 -1530 875 -285 72 -519 96
-855 88 -296 -7 -503 -39 -781 -117 -423 -120 -898 -366 -1211 -627 -135 -113
-360 -341 -462 -468 -346 -432 -599 -974 -660 -1415 -39 -279 -43 -660 -10
-905 42 -310 155 -659 296 -910 50 -89 193 -303 253 -380 45 -56 50 -66 29
-58 -10 4 -15 2 -11 -3 3 -6 -3 -10 -13 -11 -48 -4 -247 296 -375 564 -26 54
-51 100 -56 101 -5 2 -9 12 -9 23 0 11 -15 35 -34 54 -21 20 -30 36 -23 39 8
3 7 9 -4 18 -9 7 -16 16 -17 21 -2 24 -11 31 -21 17 -9 -13 -11 -12 -11 3 0
16 5 18 32 12 l33 -6 -30 20 c-18 13 -24 21 -15 22 10 0 11 2 3 6 -7 2 -13 11
-13 18 0 7 -6 16 -12 19 -9 3 -7 9 6 20 11 9 17 18 14 21 -3 3 -12 0 -19 -8
-24 -23 -49 -28 -49 -10 0 9 -6 21 -14 27 -21 16 -63 219 -82 396 -12 118 -15
213 -11 395 8 352 44 563 152 891 128 388 318 737 588 1077 103 130 391 418
527 527 395 315 922 561 1435 669 323 68 689 84 1045 45z m-1200 -298 c0 -2
-7 -7 -16 -10 -8 -3 -12 -2 -9 4 6 10 25 14 25 6z m855 -40 c107 -45 71 -216
-46 -216 -51 0 -75 13 -94 50 -32 61 -9 141 48 165 41 18 50 18 92 1z m-431
-174 c4 -7 -33 -17 -184 -47 -119 -24 -210 -48 -210 -56 0 -4 -6 -6 -13 -3
-12 4 -132 -30 -192 -55 -111 -46 -407 -187 -416 -197 -6 -8 -15 -12 -19 -9
-5 3 -16 -2 -24 -11 -9 -8 -16 -13 -16 -10 0 3 -22 -8 -50 -24 -27 -16 -50
-26 -50 -22 0 40 311 209 548 298 106 40 267 85 412 115 139 29 205 35 214 21z
m937 -11 c239 -44 448 -111 654 -210 225 -108 400 -213 323 -194 -13 3 -34 14
-48 23 -45 31 -214 117 -295 150 -44 18 -102 43 -130 55 -62 29 -172 65 -196
65 -10 0 -21 5 -25 11 -3 6 -15 9 -25 6 -10 -3 -19 -1 -21 4 -2 5 -12 11 -23
13 -11 2 -51 12 -90 21 -117 27 -286 56 -296 50 -5 -4 -9 -2 -9 4 0 25 49 26
181 2z m-426 -202 c15 -46 -24 -81 -65 -59 -29 15 -28 68 2 79 30 11 56 3 63
-20z m-553 -36 c22 -20 23 -70 1 -95 -9 -10 -30 -18 -49 -18 -57 0 -85 69 -44
110 24 24 67 26 92 3z m891 -63 c34 -27 44 -78 23 -118 -17 -34 -33 -42 -82
-42 -86 0 -112 123 -35 165 36 20 64 18 94 -5z m-595 -2 c20 -20 14 -56 -12
-73 -28 -19 -54 -11 -62 20 -12 49 40 87 74 53z m-600 -64 c26 -29 28 -54 7
-93 -38 -75 -155 -46 -155 38 1 84 92 118 148 55z m1522 -89 c40 -21 56 -72
36 -118 -27 -65 -93 -77 -146 -27 -29 28 -32 35 -27 73 10 74 71 106 137 72z
m-1943 -55 c11 -16 10 -18 -3 -13 -10 4 -20 0 -26 -10 -5 -10 -15 -14 -25 -10
-11 4 -14 3 -9 -5 5 -8 2 -10 -8 -6 -9 3 -16 1 -16 -6 0 -6 -4 -8 -10 -5 -5 3
-10 1 -10 -5 0 -6 -4 -8 -10 -5 -5 3 -10 1 -10 -5 0 -7 -7 -9 -16 -6 -8 3 -12
2 -9 -4 6 -10 -7 -14 -35 -11 -11 1 -12 0 -3 -7 9 -6 8 -12 -7 -25 -19 -16
-20 -16 -21 1 0 13 -2 12 -9 -5 -5 -13 -12 -23 -16 -23 -3 0 -3 7 0 16 3 9 2
12 -5 8 -6 -3 -8 -17 -4 -33 5 -21 4 -23 -6 -14 -10 10 -16 10 -28 0 -12 -9
-13 -9 -7 1 4 6 2 12 -3 12 -6 0 -11 -9 -11 -19 0 -25 -20 -38 -31 -20 -6 10
-9 11 -9 2 0 -7 -8 -13 -17 -14 -16 0 -16 -1 1 -8 17 -7 18 -8 3 -14 -9 -3
-19 -2 -22 3 -4 6 -12 10 -18 10 -7 0 -6 -4 3 -10 14 -9 7 -14 -13 -11 -5 1
-6 -3 -3 -8 3 -5 -2 -15 -11 -22 -9 -8 -14 -9 -10 -3 3 6 0 11 -7 11 -8 0 -11
-8 -9 -18 3 -10 -3 -22 -16 -28 -17 -10 -20 -9 -15 4 4 8 11 15 17 15 6 0 7 3
4 6 -10 10 -37 -16 -37 -35 0 -10 -11 -27 -25 -39 -21 -19 -25 -19 -33 -6 -8
15 -10 15 -15 0 -4 -10 -3 -15 3 -11 24 15 7 -14 -20 -35 -25 -19 -28 -26 -18
-39 8 -10 5 -10 -9 3 -25 20 -53 16 -53 -9 0 -10 -5 -13 -11 -9 -7 4 -10 1 -7
-7 3 -8 11 -13 17 -11 9 2 8 -4 -1 -20 -7 -13 -11 -27 -9 -33 1 -5 -3 -5 -10
2 -9 10 -10 15 0 27 18 22 -7 32 -27 11 -13 -14 -14 -16 -2 -10 12 7 13 6 2
-6 -7 -8 -18 -14 -25 -14 -7 -1 -11 -6 -10 -13 2 -7 -3 -12 -11 -12 -7 0 -25
-17 -39 -37 -14 -21 -37 -50 -52 -65 -14 -16 -22 -28 -18 -28 4 0 -2 -7 -14
-15 -31 -22 -85 -104 -77 -118 4 -7 4 -9 -1 -5 -8 8 -55 -48 -55 -64 0 -5 -5
-14 -10 -21 -47 -56 -60 -74 -60 -85 0 -7 4 -10 10 -7 6 4 7 -1 3 -11 -4 -11
-8 -13 -11 -6 -2 7 -8 10 -12 7 -5 -3 -6 -13 -3 -22 4 -10 2 -14 -4 -10 -11 7
-40 -50 -35 -66 1 -5 -2 -6 -7 -3 -13 8 -23 -23 -15 -47 5 -15 3 -19 -9 -14
-11 4 -21 -9 -37 -53 -12 -33 -25 -60 -29 -62 -3 -2 -24 -56 -46 -121 -22 -65
-41 -114 -43 -109 -5 17 86 278 131 375 199 425 530 796 932 1045 180 111 238
131 262 92z m2422 -7 c140 -81 297 -185 386 -256 199 -159 413 -395 545 -598
70 -109 165 -289 152 -289 -5 0 -17 18 -27 40 -10 22 -25 40 -34 41 -9 0 -11
3 -5 5 16 7 -29 90 -46 86 -8 -2 -11 4 -7 18 3 11 1 18 -4 14 -5 -3 -9 0 -9 6
0 6 -5 8 -12 4 -7 -4 -8 -3 -4 5 4 6 12 8 18 5 7 -4 8 -2 4 4 -4 7 -14 12 -22
12 -8 0 -13 4 -9 9 3 5 1 12 -5 16 -6 4 -8 11 -4 16 3 5 2 8 -3 7 -4 -2 -8 0
-8 3 0 3 -13 17 -29 32 -16 15 -26 27 -22 27 7 0 -41 67 -73 102 -9 9 -32 36
-51 59 -19 23 -65 73 -101 111 -37 37 -64 68 -61 68 3 0 -6 9 -19 20 -34 29
-100 85 -128 109 -23 20 -36 25 -54 22 -5 -1 -6 3 -3 8 3 5 -8 21 -25 35 -33
28 -65 35 -56 12 4 -10 -1 -13 -19 -11 -26 2 -46 15 -25 15 7 0 9 5 5 12 -4 7
-3 8 5 4 6 -4 9 -12 6 -17 -4 -5 -2 -9 2 -9 5 0 14 9 21 21 8 12 9 18 3 14 -6
-3 -14 1 -17 9 -3 9 -14 16 -23 16 -9 0 -22 9 -29 21 -8 12 -19 18 -28 15 -8
-3 -13 -2 -10 2 8 13 -266 166 -278 155 -3 -4 -6 -2 -6 4 0 32 50 31 109 -4z
m-1113 -36 c59 -30 109 -83 136 -144 l19 -43 31 16 c54 28 136 30 196 4 58
-25 117 -86 127 -130 5 -24 12 -29 53 -35 65 -10 103 -27 150 -69 203 -184
-21 -512 -266 -390 -55 27 -119 93 -129 132 -5 21 -8 19 -34 -27 -99 -172
-317 -174 -431 -3 l-15 22 -26 -39 c-102 -154 -315 -146 -417 16 -26 41 -29
42 -35 22 -11 -35 -86 -110 -130 -130 -110 -51 -254 3 -310 115 -31 62 -34
151 -6 211 28 63 102 122 170 136 l56 12 0 67 c0 57 5 74 30 116 64 104 183
141 290 90 55 -25 73 -43 102 -97 l19 -36 27 59 c66 139 250 198 393 125z
m-1111 -127 c3 -5 0 -7 -9 -4 -18 7 -318 -148 -431 -222 -19 -12 -24 -13 -20
-3 7 18 54 48 245 153 145 81 200 100 215 76z m2064 -52 c115 -61 301 -175
301 -185 0 -3 -15 4 -32 15 -106 65 -216 127 -306 171 -56 28 -102 53 -102 56
0 13 32 0 139 -57z m361 38 c0 -2 -9 -6 -20 -9 -11 -3 -18 -1 -14 4 5 9 34 13
34 5z m107 -113 c0 -10 -4 -10 -16 -1 -9 7 -18 13 -20 15 -2 1 5 1 16 0 11 0
20 -7 20 -14z m33 -22 c0 -5 15 -16 33 -25 17 -8 25 -16 17 -16 -8 0 -28 11
-45 25 -16 13 -24 24 -17 25 6 0 12 -4 12 -9z m-3400 -125 c0 -3 -4 -8 -10
-11 -5 -3 -10 -1 -10 4 0 6 5 11 10 11 6 0 10 -2 10 -4z m-440 -86 c8 -5 11
-12 7 -16 -4 -4 -2 -13 4 -21 9 -9 8 -13 0 -13 -6 0 -11 5 -11 10 0 15 -30 12
-31 -2 0 -10 -2 -10 -6 0 -7 17 -32 -15 -33 -43 -1 -11 -4 -14 -7 -8 -5 15
-18 4 -46 -39 -20 -32 -22 -42 -5 -32 7 4 8 3 4 -4 -4 -6 -13 -9 -21 -5 -10 3
-15 -2 -15 -16 0 -12 -6 -21 -12 -22 -7 0 -4 -4 7 -9 20 -9 20 -9 0 -9 -23 -1
-49 -36 -39 -53 5 -8 1 -9 -10 -5 -9 4 -14 3 -11 -2 3 -5 1 -12 -4 -16 -6 -3
-8 -13 -5 -23 5 -14 4 -15 -5 -2 -8 12 -11 12 -17 -3 -3 -10 -4 -21 0 -24 3
-3 -3 -13 -14 -20 -11 -8 -18 -18 -15 -23 3 -4 2 -10 -3 -12 -22 -9 -122 -237
-179 -408 -25 -74 -49 -140 -54 -146 -5 -6 -6 -13 -4 -16 3 -3 0 -18 -6 -34
-7 -16 -13 -36 -15 -44 -4 -20 -10 -42 -17 -60 -3 -8 -8 -22 -11 -30 -19 -51
12 98 46 214 83 293 221 584 394 833 76 109 98 126 134 103z m4549 -36 c11
-14 17 -32 14 -41 -4 -10 -2 -14 4 -10 14 9 103 -121 96 -139 -3 -8 -9 -14
-15 -14 -5 0 -7 4 -4 9 3 5 -1 11 -8 14 -10 4 -13 15 -10 31 3 18 -1 28 -16
36 -11 6 -19 14 -18 18 1 4 -2 15 -7 25 -6 15 -10 16 -16 5 -7 -10 -9 -11 -9
0 0 7 -5 10 -11 6 -8 -4 -9 1 -5 17 3 13 3 18 0 12 -3 -7 -13 -13 -21 -13 -9
0 -14 3 -10 6 3 4 -1 13 -10 22 -12 12 -19 13 -34 4 -16 -10 -19 -9 -19 5 1
58 56 62 99 7z m-3805 21 c3 -8 1 -15 -5 -15 -6 0 -7 -5 -4 -10 4 -6 1 -9 -7
-8 -7 2 -12 -4 -10 -14 2 -13 -4 -16 -28 -13 -16 2 -30 -1 -30 -6 0 -6 6 -7
13 -3 9 5 9 3 -1 -7 -11 -12 -14 -12 -23 1 -9 13 -10 13 -6 0 5 -19 -11 -52
-22 -45 -5 3 -12 -6 -15 -20 -5 -20 -13 -25 -37 -25 -27 0 -30 -2 -19 -15 10
-12 9 -15 -4 -15 -9 0 -21 -11 -28 -25 -6 -13 -14 -22 -18 -20 -4 3 -13 -2
-20 -10 -7 -8 -17 -12 -24 -8 -6 4 -5 -1 3 -10 8 -10 11 -20 7 -24 -3 -3 -6
-1 -6 5 0 7 -8 12 -17 12 -15 0 -16 -2 -3 -10 13 -8 12 -10 -2 -10 -10 0 -18
-7 -18 -16 0 -8 -4 -12 -10 -9 -5 3 -10 -1 -10 -10 0 -8 -7 -18 -16 -22 -8 -3
-13 -12 -10 -20 3 -8 2 -12 -2 -10 -4 3 -16 -5 -27 -16 -12 -11 -14 -17 -5
-13 9 5 8 2 -2 -7 -10 -8 -18 -19 -18 -26 0 -6 -5 -11 -11 -11 -5 0 -7 -4 -4
-10 3 -5 1 -10 -6 -10 -7 0 -9 -3 -6 -6 8 -8 -24 -64 -36 -64 -5 0 -3 -8 4
-17 8 -9 9 -14 3 -10 -13 7 -59 -37 -51 -50 3 -5 -8 -24 -24 -42 -30 -35 -35
-46 -21 -54 4 -2 2 -3 -4 -1 -5 1 -16 -12 -23 -30 -8 -17 -26 -58 -41 -91 -16
-33 -34 -79 -41 -103 -16 -55 -24 -47 -9 9 61 229 245 540 455 772 141 156
220 210 239 162z m3157 -108 c111 -110 251 -279 249 -300 -1 -5 6 -14 14 -20
15 -12 40 -67 30 -67 -3 0 -10 14 -15 30 -6 17 -15 30 -20 30 -6 0 -6 -7 0
-18 7 -14 6 -19 -4 -19 -7 0 -11 7 -7 15 4 11 2 13 -9 7 -11 -7 -11 -5 1 10
14 17 13 18 -4 12 -16 -6 -17 -5 -6 8 8 10 9 15 1 15 -6 0 -11 9 -11 21 0 11
-5 17 -10 14 -7 -4 -7 -12 0 -25 6 -10 6 -21 2 -24 -5 -3 -9 0 -10 7 -1 12 -9
48 -12 57 -1 3 -2 9 -1 14 1 5 -5 6 -13 3 -14 -5 -31 18 -27 36 1 5 -3 6 -8 3
-5 -4 -19 10 -31 29 -12 19 -24 35 -26 35 -3 0 -2 -5 2 -12 4 -7 3 -8 -4 -4
-6 4 -9 13 -6 20 3 8 1 17 -5 21 -6 3 -11 -2 -12 -12 0 -13 -2 -14 -6 -4 -7
18 -61 71 -72 71 -5 0 -11 10 -14 21 -3 13 -11 19 -19 17 -18 -7 -42 18 -25
26 7 4 2 4 -10 2 -16 -3 -21 1 -18 13 1 9 -4 23 -13 31 -14 13 -15 12 -9 -3 9
-25 -10 -21 -24 6 -7 12 -11 24 -10 27 1 2 -3 6 -10 9 -8 2 -10 -2 -6 -12 4
-11 2 -14 -8 -10 -25 9 2 43 34 43 23 0 52 -23 152 -123z m-2797 84 c-10 -10
-22 -17 -26 -14 -5 2 -8 -1 -8 -6 0 -6 5 -11 10 -11 6 0 10 -5 10 -11 0 -8 -5
-8 -15 1 -12 10 -20 9 -40 -4 -26 -17 -33 -36 -14 -36 5 0 7 4 4 10 -4 6 1 7
11 3 11 -4 13 -8 6 -11 -7 -2 -10 -8 -6 -13 7 -13 -3 -11 -26 3 -15 10 -25 10
-38 2 -23 -15 -22 -39 2 -37 12 1 15 -2 8 -9 -6 -6 -16 -5 -30 3 -18 11 -26 7
-73 -34 -74 -64 -99 -92 -99 -111 0 -9 -5 -16 -11 -16 -5 0 -7 5 -3 12 4 6 3
8 -4 5 -5 -4 -8 -16 -5 -26 4 -15 -1 -20 -18 -23 -14 -2 -25 -11 -27 -23 -4
-19 -34 -55 -47 -55 -3 0 -3 6 0 13 4 6 -1 3 -9 -7 -9 -11 -16 -26 -16 -34 0
-7 -4 -10 -10 -7 -5 3 -11 1 -11 -4 -1 -6 -2 -17 -3 -23 0 -7 -8 -13 -16 -13
-8 0 -15 -6 -15 -13 0 -7 -7 -17 -15 -22 -8 -5 -10 -10 -5 -10 6 0 2 -5 -7
-11 -10 -5 -18 -19 -18 -29 0 -12 -7 -20 -16 -20 -10 0 -14 -5 -10 -16 4 -9 2
-13 -5 -8 -7 4 -10 1 -7 -7 3 -8 -6 -24 -19 -36 -12 -12 -23 -26 -23 -30 0
-19 -58 -122 -65 -115 -4 4 -5 -5 -3 -21 4 -19 0 -30 -11 -37 -9 -5 -12 -10
-7 -10 5 0 3 -7 -4 -15 -10 -12 -10 -15 0 -15 7 0 2 -9 -11 -20 -13 -10 -19
-19 -12 -20 6 0 13 5 15 12 3 7 7 5 11 -6 4 -10 3 -15 -3 -11 -11 7 -37 -31
-42 -60 -2 -11 -6 -23 -11 -26 -4 -3 -9 -16 -12 -29 -2 -12 -9 -38 -15 -56 -6
-19 -8 -39 -4 -45 4 -7 3 -9 -3 -6 -10 6 -32 -135 -37 -235 -2 -47 1 -58 13
-59 13 -1 13 -2 -1 -6 -12 -3 -16 -13 -13 -39 1 -19 -2 -37 -6 -40 -12 -7 -11
143 1 246 56 457 288 863 680 1191 77 65 161 119 184 119 19 0 19 0 0 -19z
m2284 0 c152 -77 555 -474 510 -502 -17 -11 -37 8 -31 30 3 12 -7 30 -26 50
-17 17 -39 43 -48 58 -10 15 -19 21 -21 14 -4 -11 -37 26 -36 39 1 8 -50 45
-58 43 -4 -2 -4 5 -1 14 5 13 2 15 -11 10 -10 -4 -15 -3 -11 3 3 5 -7 17 -22
27 -15 10 -38 28 -51 40 -14 13 -29 20 -35 16 -5 -3 -7 -1 -3 5 3 6 -3 13 -14
17 -11 3 -20 11 -20 17 0 5 -7 8 -14 5 -9 -4 -13 -1 -11 6 3 7 -18 27 -46 45
-28 19 -48 28 -44 20 3 -7 -1 -4 -10 7 -9 11 -21 20 -28 20 -6 0 -13 8 -15 18
-4 22 0 21 46 -2z m-3053 -23 c5 -4 0 -6 -12 -6 -13 1 -19 7 -16 15 3 8 8 10
12 6 3 -4 10 -11 16 -15z m4155 5 c0 -5 -5 -15 -10 -23 -7 -12 -9 -10 -7 8 1
19 17 33 17 15z m-4514 -12 c-4 -5 -1 -12 4 -14 6 -3 5 -4 -2 -3 -15 3 -23 26
-8 26 6 0 9 -4 6 -9z m312 -35 c-7 -8 -15 -12 -17 -11 -5 6 10 25 20 25 5 0 4
-6 -3 -14z m787 -20 c2 -18 -1 -23 -12 -19 -9 4 -11 9 -4 16 5 5 7 17 4 26 -4
9 -3 13 2 9 4 -4 9 -18 10 -32z m-820 5 c3 -5 2 -12 -3 -15 -5 -3 -9 1 -9 9 0
17 3 19 12 6z m-350 -21 c3 -5 1 -10 -4 -10 -6 0 -11 5 -11 10 0 6 2 10 4 10
3 0 8 -4 11 -10z m342 -30 c1 -16 -1 -17 -12 -7 -11 10 -8 19 10 27 1 0 1 -9
2 -20z m698 -18 c-3 -3 -11 0 -18 7 -9 10 -8 11 6 5 10 -3 15 -9 12 -12z
m-1068 -17 c0 -8 -4 -12 -9 -9 -5 3 -6 10 -3 15 9 13 12 11 12 -6z m1008 -25
c-3 -5 -12 -10 -18 -10 -7 0 -6 4 3 10 19 12 23 12 15 0z m3805 -26 c0 -8 -9
-14 -22 -13 -17 1 -18 3 -6 6 11 3 15 10 11 20 -4 11 -2 14 5 9 7 -4 12 -14
12 -22z m-4840 2 c0 -2 -7 -7 -16 -10 -8 -3 -12 -2 -9 4 6 10 25 14 25 6z
m997 -12 c-3 -3 -12 -4 -19 -1 -8 3 -5 6 6 6 11 1 17 -2 13 -5z m3875 -36 c10
-15 12 -30 7 -43 -7 -19 -8 -19 -8 2 -1 12 -4 29 -7 38 -5 13 -8 14 -15 3 -7
-10 -9 -9 -9 5 0 24 15 21 32 -5z m-3918 -3 c-4 -8 -8 -15 -10 -15 -2 0 -4 7
-4 15 0 8 4 15 10 15 5 0 7 -7 4 -15z m2514 -11 c42 -29 16 -104 -37 -104 -23
0 -51 31 -51 56 0 12 12 32 26 43 32 25 33 25 62 5z m-2133 0 c24 -10 46 -60
39 -89 -8 -31 -49 -65 -79 -65 -39 0 -75 37 -75 78 0 62 55 98 115 76z m610
-64 c74 -51 149 -74 219 -66 103 10 117 13 128 24 6 6 17 8 24 5 8 -3 18 5 24
21 12 33 36 33 79 2 46 -34 119 -49 209 -44 74 4 124 21 192 64 24 15 28 14
84 -20 74 -45 150 -61 227 -49 l57 9 4 -54 c2 -29 1 -56 -1 -58 -2 -2 -107 -4
-232 -4 l-228 0 3 -227 c2 -126 4 -236 5 -245 1 -19 36 -25 46 -8 7 12 25 4
25 -12 0 -5 -7 -8 -15 -4 -8 3 -15 0 -15 -6 0 -6 -10 -19 -21 -29 -19 -16 -20
-19 -5 -25 20 -8 21 -24 1 -24 -8 0 -15 -9 -15 -20 0 -11 5 -20 10 -20 6 0 10
7 10 16 0 8 4 13 9 9 5 -3 12 -1 16 5 9 15 25 12 25 -4 0 -7 -9 -16 -20 -19
-12 -3 -20 -14 -20 -26 0 -12 -6 -21 -15 -21 -8 0 -15 -5 -15 -11 0 -7 9 -9
24 -5 26 6 52 -15 41 -34 -4 -7 -13 -7 -27 1 -14 8 -23 8 -31 0 -8 -8 -5 -11
11 -11 13 0 22 -6 22 -15 0 -8 -4 -15 -10 -15 -5 0 -10 -7 -10 -15 0 -8 5 -15
10 -15 17 0 11 -29 -10 -50 -11 -11 -20 -22 -20 -24 0 -2 9 -2 20 1 11 3 20 9
20 14 0 10 41 49 52 49 4 0 8 -7 8 -16 0 -11 -5 -14 -16 -10 -13 5 -15 2 -11
-14 3 -11 -1 -23 -7 -28 -7 -4 -18 -17 -25 -29 -10 -19 -9 -22 9 -20 12 1 20
8 20 19 0 12 8 18 21 18 15 0 19 5 15 15 -3 8 -1 15 4 15 5 0 7 8 3 18 -3 9
-3 14 2 10 12 -11 15 -78 4 -78 -6 0 -20 -9 -32 -20 -17 -16 -19 -23 -9 -29
11 -7 10 -10 -3 -14 -9 -4 -13 -3 -10 3 3 6 -2 10 -11 10 -14 0 -15 -3 -6 -12
15 -15 42 -19 42 -7 0 5 7 9 15 9 23 0 18 -13 -15 -40 -33 -28 -38 -42 -12
-38 11 2 16 -2 13 -12 -2 -8 -3 -23 -3 -32 0 -10 -5 -17 -11 -15 -7 1 -13 -12
-15 -32 -2 -23 -9 -35 -24 -39 -13 -3 -18 -11 -15 -23 3 -11 1 -21 -3 -24 -5
-3 -11 3 -13 12 -4 14 -5 13 -6 -4 -1 -16 4 -21 18 -20 11 0 17 5 15 9 -3 4 0
8 6 8 21 0 4 -25 -18 -28 -22 -3 -22 -5 -23 -260 -1 -141 -2 -261 -4 -267 -1
-5 -3 -137 -3 -293 -2 -247 -4 -283 -18 -289 -42 -16 -43 -1 -45 495 -1 397
-4 476 -16 488 -19 18 -29 18 -37 -2 -5 -14 -4 -15 8 -5 11 9 15 6 20 -15 8
-32 -2 -67 -16 -58 -7 5 -9 1 -5 -9 3 -9 0 -18 -9 -21 -8 -3 -13 -2 -10 3 4 5
-3 7 -14 4 -17 -5 -17 -7 -5 -20 8 -8 21 -11 27 -7 8 4 9 3 5 -2 -5 -5 -18 -9
-29 -9 -25 0 -32 -29 -16 -59 11 -20 10 -20 -7 -6 -11 9 -16 10 -11 3 4 -8 2
-13 -6 -13 -7 -1 1 -7 17 -15 17 -7 25 -14 18 -14 -7 -1 -10 -12 -8 -28 2 -16
2 -23 -1 -17 -3 7 -14 9 -26 6 -14 -3 -19 -1 -14 6 10 17 -2 15 -32 -6 -38
-26 -60 -33 -65 -19 -2 7 -4 -3 -4 -20 0 -18 4 -33 9 -33 4 0 8 9 8 20 0 11 3
20 8 20 4 0 7 -11 7 -24 0 -13 -3 -22 -7 -19 -16 9 -8 -10 9 -22 13 -9 13 -14
3 -20 -9 -5 -11 -4 -6 3 4 7 2 12 -3 12 -6 0 -11 -4 -11 -10 0 -5 -7 -10 -16
-10 -8 0 -12 -4 -9 -10 3 -5 2 -10 -3 -10 -14 0 -12 -74 1 -82 9 -6 9 -8 0 -8
-10 0 -13 -51 -13 -223 0 -230 -3 -247 -41 -247 -25 0 -28 26 -30 242 l-1 196
-26 7 c-14 3 -28 2 -31 -3 -3 -5 -14 -8 -23 -7 -11 2 -15 -2 -11 -12 4 -11 8
-11 13 -3 5 8 10 9 14 2 4 -6 -2 -16 -13 -21 -27 -15 -34 -14 -28 4 4 8 2 17
-3 20 -19 12 -9 -29 13 -53 21 -23 21 -24 2 -18 -15 4 -23 -1 -32 -19 -6 -15
-7 -25 -1 -25 5 0 6 -5 2 -11 -5 -8 -9 -8 -14 1 -6 9 -12 9 -30 0 -17 -9 -25
-9 -34 0 -8 8 -7 10 5 5 10 -4 20 -2 24 4 3 7 -2 11 -14 11 -26 0 -34 -15 -16
-30 18 -15 19 -28 3 -27 -41 1 -46 -3 -44 -35 1 -18 5 -39 9 -45 5 -8 4 -13
-2 -13 -7 0 -11 -28 -11 -72 0 -83 -8 -101 -41 -96 -30 4 -37 30 -38 141 -1
57 -5 87 -12 87 -8 0 -8 4 0 14 15 18 4 64 -18 76 -13 7 -17 4 -18 -13 -2 -17
0 -18 7 -7 10 17 15 14 25 -18 6 -22 5 -23 -14 -13 -26 14 -26 11 -1 -34 11
-19 15 -35 10 -35 -6 0 -10 3 -10 8 0 4 -25 7 -56 8 -32 0 -50 -3 -42 -7 7 -5
9 -9 3 -9 -5 0 -3 -5 5 -10 12 -8 11 -10 -7 -10 -13 0 -23 4 -23 10 0 5 -8 6
-17 3 -15 -6 -15 -7 1 -13 10 -3 17 -10 16 -15 0 -5 6 -10 15 -11 8 -1 15 2
15 7 0 5 7 9 15 9 8 0 15 9 15 19 0 15 5 18 23 13 25 -6 47 -30 46 -52 0 -8
-5 -4 -10 9 -7 19 -12 21 -24 11 -8 -6 -18 -9 -24 -6 -5 4 -16 -1 -24 -9 -9
-8 -24 -16 -34 -18 -10 -1 -23 -6 -30 -10 -6 -4 -14 -3 -17 2 -4 5 0 12 6 14
10 4 9 8 -2 16 -8 6 -19 11 -25 11 -5 0 -4 -4 3 -9 14 -8 13 -32 -1 -42 -5 -3
-9 -20 -9 -37 -1 -17 -5 -29 -10 -26 -5 3 -7 2 -6 -3 1 -4 -1 -18 -5 -29 -8
-24 -67 -40 -67 -18 0 6 -12 15 -26 18 -20 5 -24 10 -15 19 14 14 14 27 1 27
-6 0 -9 -3 -8 -7 2 -5 -1 -8 -7 -8 -5 0 -9 6 -9 12 1 7 -2 10 -7 7 -16 -9 -10
-33 11 -46 11 -7 20 -19 20 -27 0 -11 -4 -9 -14 5 -13 17 -15 17 -21 2 -10
-24 -32 -29 -46 -10 -11 14 -11 15 1 5 11 -10 17 -10 31 3 17 16 17 18 -12 47
-25 24 -30 37 -27 63 2 18 1 31 -3 29 -10 -7 -13 216 -14 1000 0 431 4 758 9
769 7 14 6 17 -2 12 -8 -5 -10 -2 -6 8 3 9 10 16 16 16 5 0 7 4 3 9 -3 5 3 17
12 27 17 17 17 17 1 11 -10 -3 -20 -2 -23 3 -4 6 -1 10 5 10 6 0 9 4 6 9 -3 5
1 14 9 21 8 7 15 17 15 22 0 6 -7 5 -15 -2 -12 -10 -15 -10 -15 4 0 9 7 16 15
16 8 0 15 7 15 16 0 12 7 15 24 12 19 -4 22 -1 18 14 -2 10 1 18 7 18 6 0 11
-7 11 -15 0 -8 7 -15 15 -15 18 0 20 21 3 38 -9 9 -9 12 0 12 7 0 12 7 12 15
0 8 -6 15 -12 15 -10 0 -10 2 0 9 8 4 11 19 8 34 -2 15 1 28 7 31 9 3 8 7 -2
14 -12 9 -12 13 -2 26 22 26 2 36 -70 36 l-69 0 0 64 0 65 32 -10 c65 -18 160
-11 215 16 28 14 58 34 68 45 10 11 20 20 22 20 3 0 24 -13 48 -30z m2971 -9
c-4 -5 -1 -12 4 -14 6 -3 5 -4 -2 -3 -15 3 -23 26 -8 26 6 0 9 -4 6 -9z
m-1016 -17 c0 -8 -19 -13 -24 -6 -3 5 1 9 9 9 8 0 15 -2 15 -3z m1040 -18 c0
-2 -6 -9 -14 -15 -11 -9 -16 -9 -22 0 -4 8 -3 9 4 5 7 -4 12 -2 12 3 0 6 5 11
10 11 6 0 10 -2 10 -4z m-963 -32 c-3 -3 -12 -4 -19 -1 -8 3 -5 6 6 6 11 1 17
-2 13 -5z m987 -39 c-4 -8 -8 -15 -10 -15 -2 0 -4 7 -4 15 0 8 4 15 10 15 5 0
7 -7 4 -15z m-883 -72 c13 -16 12 -17 -3 -4 -10 7 -18 15 -18 17 0 8 8 3 21
-13z m-1032 -143 c0 -80 0 -597 0 -1150 1 -1064 2 -1044 -43 -1027 -17 7 -17
7 -22 327 -4 296 -4 1273 0 1278 3 2 1 13 -5 23 -5 11 -6 19 -1 19 11 0 13 38
1 46 -6 4 -6 11 2 20 9 11 9 17 0 28 -8 9 -8 16 -2 20 11 7 9 45 -3 64 -4 7
-3 12 2 12 9 0 10 55 11 341 l1 146 30 -1 29 -1 0 -145z m633 118 c71 -33 146
-102 181 -166 57 -105 59 -135 54 -727 -5 -575 -6 -585 -57 -684 -31 -63 -116
-144 -186 -179 -73 -37 -150 -52 -266 -52 l-88 0 0 100 0 100 93 0 c85 0 100
3 156 31 61 30 91 61 127 129 18 33 19 70 22 555 2 369 0 531 -8 558 -14 49
-83 125 -135 148 -31 14 -65 19 -146 19 l-107 0 -4 93 c-3 50 -3 96 0 100 2 5
72 7 156 5 139 -3 155 -5 208 -30z m447 -50 c13 -21 21 -38 18 -38 -7 0 -57
75 -57 85 0 12 13 -3 39 -47z m-3734 22 c3 -5 1 -10 -4 -10 -6 0 -11 5 -11 10
0 6 2 10 4 10 3 0 8 -4 11 -10z m621 -91 c13 -19 44 -51 69 -69 l45 -33 -38
-17 c-21 -10 -49 -31 -63 -47 -23 -28 -33 -46 -54 -108 -6 -17 -9 -14 -21 18
-18 52 -65 109 -108 132 -20 11 -36 22 -36 25 0 3 16 16 35 28 40 28 74 71
101 129 l19 42 13 -32 c8 -18 24 -48 38 -68z m644 71 c0 -5 -2 -10 -4 -10 -3
0 -8 5 -11 10 -3 6 -1 10 4 10 6 0 11 -4 11 -10z m3090 -5 c7 -9 8 -15 2 -15
-5 0 -12 7 -16 15 -3 8 -4 15 -2 15 2 0 9 -7 16 -15z m-3125 -5 c3 -5 1 -10
-4 -10 -6 0 -11 5 -11 10 0 6 2 10 4 10 3 0 8 -4 11 -10z m5 -40 c0 -5 -4 -10
-10 -10 -5 0 -10 5 -10 10 0 6 5 10 10 10 6 0 10 -4 10 -10z m2530 -14 c1 5 7
-2 15 -16 9 -17 10 -29 3 -37 -11 -13 -38 -7 -38 9 0 6 6 6 14 -1 9 -8 16 -8
20 -2 4 5 1 13 -6 18 -7 4 -22 19 -33 33 l-20 25 23 -19 c12 -11 22 -15 22
-10z m-2560 -6 c0 -5 -5 -10 -11 -10 -5 0 -7 5 -4 10 3 6 8 10 11 10 2 0 4 -4
4 -10z m70 -5 c0 -8 -4 -15 -10 -15 -5 0 -10 7 -10 15 0 8 5 15 10 15 6 0 10
-7 10 -15z m-40 -25 c0 -5 -4 -10 -10 -10 -5 0 -10 5 -10 10 0 6 5 10 10 10 6
0 10 -4 10 -10z m-30 -30 c0 -5 -4 -10 -10 -10 -5 0 -10 5 -10 10 0 6 5 10 10
10 6 0 10 -4 10 -10z m1230 -60 c0 -5 -5 -10 -11 -10 -5 0 -7 5 -4 10 3 6 8
10 11 10 2 0 4 -4 4 -10z m35 -30 c3 -5 1 -10 -4 -10 -6 0 -11 5 -11 10 0 6 2
10 4 10 3 0 8 -4 11 -10z m-95 -20 c0 -5 -2 -10 -4 -10 -3 0 -8 5 -11 10 -3 6
-1 10 4 10 6 0 11 -4 11 -10z m57 -12 c-3 -8 -6 -5 -6 6 -1 11 2 17 5 13 3 -3
4 -12 1 -19z m1340 -20 c-3 -8 -6 -5 -6 6 -1 11 2 17 5 13 3 -3 4 -12 1 -19z
m-1297 3 c0 -6 -4 -12 -8 -15 -5 -3 -9 1 -9 9 0 8 4 15 9 15 4 0 8 -4 8 -9z
m-100 -31 c0 -5 -4 -10 -10 -10 -5 0 -10 5 -10 10 0 6 5 10 10 10 6 0 10 -4
10 -10z m190 0 c0 -5 -4 -10 -10 -10 -5 0 -10 5 -10 10 0 6 5 10 10 10 6 0 10
-4 10 -10z m1230 -25 c0 -5 -5 -3 -10 5 -5 8 -10 20 -10 25 0 6 5 3 10 -5 5
-8 10 -19 10 -25z m-1300 15 c0 -5 -2 -10 -4 -10 -3 0 -8 5 -11 10 -3 6 -1 10
4 10 6 0 11 -4 11 -10z m-80 -31 c0 -5 -7 -9 -15 -9 -15 0 -20 12 -9 23 8 8
24 -1 24 -14z m47 -11 c-3 -7 -5 -2 -5 12 0 14 2 19 5 13 2 -7 2 -19 0 -25z
m68 23 c3 -5 1 -12 -5 -16 -5 -3 -10 1 -10 9 0 18 6 21 15 7z m245 -21 c0 -5
-2 -10 -4 -10 -3 0 -8 5 -11 10 -3 6 -1 10 4 10 6 0 11 -4 11 -10z m-400 -10
c0 -5 -4 -10 -10 -10 -5 0 -10 5 -10 10 0 6 5 10 10 10 6 0 10 -4 10 -10z
m190 0 c0 -5 -5 -10 -11 -10 -5 0 -7 5 -4 10 3 6 8 10 11 10 2 0 4 -4 4 -10z
m-60 -10 c0 -5 -4 -10 -10 -10 -5 0 -10 5 -10 10 0 6 5 10 10 10 6 0 10 -4 10
-10z m1314 -12 c23 -80 46 -176 45 -193 0 -11 -11 23 -24 75 -14 52 -29 105
-35 118 -5 12 -6 22 -1 22 5 0 12 -10 15 -22z m-1384 2 c0 -5 -2 -10 -4 -10
-3 0 -8 5 -11 10 -3 6 -1 10 4 10 6 0 11 -4 11 -10z m100 -14 c0 -3 -4 -8 -10
-11 -5 -3 -10 -1 -10 4 0 6 5 11 10 11 6 0 10 -2 10 -4z m-70 -16 c0 -5 -4
-10 -10 -10 -5 0 -10 5 -10 10 0 6 5 10 10 10 6 0 10 -4 10 -10z m-26 -31 c-3
-5 -10 -7 -15 -3 -5 3 -7 10 -3 15 3 5 10 7 15 3 5 -3 7 -10 3 -15z m62 -6
c-10 -10 -19 5 -10 18 6 11 8 11 12 0 2 -7 1 -15 -2 -18z m-96 -13 c0 -11 -2
-20 -5 -20 -2 0 -9 9 -15 20 -9 16 -8 20 5 20 8 0 15 -9 15 -20z m160 10 c0
-5 -4 -10 -10 -10 -5 0 -10 5 -10 10 0 6 5 10 10 10 6 0 10 -4 10 -10z m-90
-20 c0 -5 -4 -10 -10 -10 -5 0 -10 5 -10 10 0 6 5 10 10 10 6 0 10 -4 10 -10z
m55 0 c3 -5 1 -10 -4 -10 -6 0 -11 5 -11 10 0 6 2 10 4 10 3 0 8 -4 11 -10z
m-88 -26 c-9 -9 -28 6 -21 18 4 6 10 6 17 -1 6 -6 8 -13 4 -17z m303 16 c0 -5
-5 -10 -11 -10 -5 0 -7 5 -4 10 3 6 8 10 11 10 2 0 4 -4 4 -10z m-240 -25 c0
-8 -4 -15 -10 -15 -5 0 -10 7 -10 15 0 8 5 15 10 15 6 0 10 -7 10 -15z m-2032
-39 c14 -56 64 -121 123 -161 l47 -32 -36 -13 c-41 -15 -114 -86 -132 -129
-15 -38 -24 -39 -39 -3 -18 43 -84 108 -125 123 -20 7 -36 16 -36 20 0 4 22
23 50 43 62 44 108 108 116 158 4 21 10 38 13 38 4 0 12 -20 19 -44z m2092 30
c0 -3 -4 -8 -10 -11 -5 -3 -10 -1 -10 4 0 6 5 11 10 11 6 0 10 -2 10 -4z m-90
-21 c0 -8 -4 -15 -10 -15 -5 0 -10 7 -10 15 0 8 5 15 10 15 6 0 10 -7 10 -15z
m270 5 c0 -5 -2 -10 -4 -10 -3 0 -8 5 -11 10 -3 6 -1 10 4 10 6 0 11 -4 11
-10z m-330 -15 c0 -8 -4 -15 -9 -15 -13 0 -22 16 -14 24 11 11 23 6 23 -9z
m115 6 c3 -5 1 -12 -5 -16 -5 -3 -10 1 -10 9 0 18 6 21 15 7z m-85 -21 c0 -5
-4 -10 -10 -10 -5 0 -10 5 -10 10 0 6 5 10 10 10 6 0 10 -4 10 -10z m60 -14
c0 -11 -19 -15 -25 -6 -3 5 1 10 9 10 9 0 16 -2 16 -4z m46 -23 c-10 -10 -19
5 -10 18 6 11 8 11 12 0 2 -7 1 -15 -2 -18z m-116 1 c0 -8 -4 -12 -10 -9 -5 3
-10 10 -10 16 0 5 5 9 10 9 6 0 10 -7 10 -16z m34 -9 c-6 -16 -24 -21 -24 -7
0 11 11 22 21 22 5 0 6 -7 3 -15z m61 -4 c3 -5 1 -12 -4 -15 -5 -3 -11 1 -15
9 -6 16 9 21 19 6z m1359 -61 c4 -20 3 -30 -3 -25 -4 6 -11 30 -14 55 -7 49 6
28 17 -30z m-1444 24 c0 -8 7 -14 15 -14 8 0 15 -9 15 -20 0 -25 -18 -26 -27
-2 -4 9 -13 22 -21 28 -8 6 -12 16 -8 23 9 14 26 5 26 -15z m60 -5 c0 -5 -4
-9 -10 -9 -5 0 -10 7 -10 16 0 8 5 12 10 9 6 -3 10 -10 10 -16z m60 1 c0 -5
-7 -7 -15 -4 -8 4 -12 10 -9 15 6 11 24 2 24 -11z m-146 -25 c4 -10 -1 -15
-14 -15 -11 0 -20 7 -20 15 0 8 6 15 14 15 8 0 16 -7 20 -15z m114 -14 c3 -8
-1 -12 -9 -9 -7 2 -15 10 -17 17 -3 8 1 12 9 9 7 -2 15 -10 17 -17z m162 -1
c0 -5 -2 -10 -4 -10 -3 0 -8 5 -11 10 -3 6 -1 10 4 10 6 0 11 -4 11 -10z
m-190 -30 c0 -5 -4 -10 -10 -10 -5 0 -10 5 -10 10 0 6 5 10 10 10 6 0 10 -4
10 -10z m60 1 c0 -5 -9 -11 -19 -14 -14 -3 -18 -1 -14 9 6 15 33 19 33 5z
m1332 -15 c3 -14 1 -31 -3 -38 -6 -8 -9 1 -9 25 0 42 6 48 12 13z m-1381 -31
c-1 -15 -24 -12 -29 3 -3 9 2 13 12 10 10 -1 17 -7 17 -13z m59 5 c0 -5 -2
-10 -4 -10 -3 0 -8 5 -11 10 -3 6 -1 10 4 10 6 0 11 -4 11 -10z m-20 -30 c0
-5 -7 -10 -15 -10 -8 0 -15 5 -15 10 0 6 7 10 15 10 8 0 15 -4 15 -10z m-40
-25 c0 -8 -4 -15 -9 -15 -13 0 -22 16 -14 24 11 11 23 6 23 -9z m-35 -15 c3
-6 -1 -13 -10 -16 -19 -8 -30 0 -20 15 8 14 22 14 30 1z m75 -9 c0 -6 -4 -13
-10 -16 -5 -3 -10 1 -10 9 0 9 5 16 10 16 6 0 10 -4 10 -9z m1347 -43 c-3 -7
-5 -2 -5 12 0 14 2 19 5 13 2 -7 2 -19 0 -25z m-1385 7 c0 -5 -5 -11 -11 -13
-6 -2 -11 4 -11 13 0 9 5 15 11 13 6 -2 11 -8 11 -13z m1379 -118 c-4 -61 -11
-59 -11 3 0 29 3 50 7 46 4 -4 6 -26 4 -49z m-3896 34 c3 -5 1 -12 -5 -16 -5
-3 -10 1 -10 9 0 18 6 21 15 7z m2459 -16 c3 -8 1 -15 -4 -15 -6 0 -10 7 -10
15 0 8 2 15 4 15 2 0 6 -7 10 -15z m-4 -58 c0 -4 -9 -3 -20 3 -11 6 -20 15
-20 20 0 6 9 5 20 -2 11 -7 20 -16 20 -21z m-25 -27 c3 -5 1 -10 -4 -10 -6 0
-11 5 -11 10 0 6 2 10 4 10 3 0 8 -4 11 -10z m1457 -37 c-3 -16 -7 -22 -10
-15 -4 13 4 42 11 42 2 0 2 -12 -1 -27z m-1497 7 c3 -5 1 -10 -4 -10 -6 0 -11
5 -11 10 0 6 2 10 4 10 3 0 8 -4 11 -10z m45 -50 c0 -5 -2 -10 -4 -10 -3 0 -8
5 -11 10 -3 6 -1 10 4 10 6 0 11 -4 11 -10z m1435 -67 c-15 -76 -38 -165 -53
-203 -5 -14 -11 -29 -12 -35 -2 -5 -10 -26 -18 -45 -9 -19 -16 -37 -17 -40 -3
-20 -95 -188 -132 -243 -41 -60 -207 -259 -215 -257 -2 0 -28 -22 -58 -50 -62
-58 -210 -160 -231 -160 -8 1 -1 8 15 17 16 8 34 20 40 25 6 5 41 30 77 56
111 79 279 248 348 352 59 87 126 216 169 325 38 96 82 259 82 304 0 11 4 21
9 21 5 0 3 -30 -4 -67z m-1503 15 c-7 -7 -12 -8 -12 -2 0 14 12 26 19 19 2 -3
-1 -11 -7 -17z m-2521 -188 c10 -6 19 -18 19 -28 0 -11 -3 -13 -8 -5 -5 8 -16
8 -45 -2 -41 -14 -48 -4 -20 27 19 21 27 22 54 8z m4328 1 c8 -5 16 -17 17
-25 1 -10 -2 -13 -9 -9 -20 12 -47 14 -47 2 0 -5 5 -7 10 -4 6 3 10 1 10 -4 0
-14 -17 -14 -26 0 -4 7 -12 1 -20 -17 -7 -16 -13 -22 -13 -14 -1 22 36 80 51
80 7 0 19 -4 27 -9z m-4624 -20 c0 -8 -9 -15 -20 -16 -11 -2 -28 -6 -37 -10
-21 -9 -25 14 -6 33 17 17 63 11 63 -7z m4929 13 c9 -3 16 -12 16 -20 0 -8 -6
-11 -15 -8 -23 9 -65 -5 -65 -21 0 -7 -4 -17 -10 -20 -17 -10 9 49 27 63 19
14 25 14 47 6z m-4295 -72 c12 -29 16 -50 10 -47 -11 7 -25 39 -35 83 -10 40
2 24 25 -36z m2071 3 c0 -5 -5 -3 -10 5 -5 8 -10 20 -10 25 0 6 5 3 10 -5 5
-8 10 -19 10 -25z m-36 7 c2 -4 -2 -16 -10 -27 -8 -10 -14 -14 -14 -8 0 7 5
15 12 19 8 5 6 10 -8 15 -16 6 -16 8 -2 8 9 1 19 -2 22 -7z m-1981 -134 c14
-32 23 -58 19 -58 -7 0 -52 98 -52 114 0 14 5 6 33 -56z m1907 21 c12 -8 12
-10 -5 -8 -35 3 -38 -1 -20 -28 10 -16 14 -25 10 -21 -4 4 -13 0 -20 -9 -9
-13 -14 -13 -20 -3 -5 9 -4 11 3 6 7 -4 12 -2 12 3 0 6 -7 11 -15 11 -17 0
-10 29 13 48 19 15 23 15 42 1z m-1826 -164 c125 -197 291 -362 484 -480 34
-21 62 -40 62 -42 0 -5 0 -5 -80 42 -92 55 -143 95 -240 188 -117 113 -226
245 -253 307 -4 8 -14 25 -23 38 -9 12 -12 22 -7 22 5 0 31 -34 57 -75z m3697
38 c-59 -119 -76 -151 -79 -148 -5 4 43 111 64 143 17 26 28 30 15 5z m-1951
-7 c0 -8 6 -17 13 -19 9 -4 9 -6 0 -6 -7 -1 -17 8 -23 19 -7 14 -7 20 0 20 5
0 10 -6 10 -14z m-2032 -108 c18 -32 29 -58 24 -58 -9 0 -45 59 -48 79 -2 7
-7 18 -13 24 -6 6 -11 16 -11 21 0 15 13 -3 48 -66z m5206 43 c3 -5 -1 -11 -9
-14 -9 -4 -12 -1 -8 9 6 16 10 17 17 5z m-380 -16 c20 -20 10 -44 -20 -51 -14
-4 -72 -3 -130 1 -105 7 -105 7 -91 29 18 26 49 33 149 35 57 1 81 -3 92 -14z
m-5496 -22 l14 -23 -131 0 c-111 0 -133 2 -138 16 -10 27 18 34 131 32 100 -3
110 -5 124 -25z m5883 -16 c-10 -9 -11 -8 -5 6 3 10 9 15 12 12 3 -3 0 -11 -7
-18z m-3323 -31 c-2 -11 -7 -19 -12 -18 -5 2 -13 -2 -17 -10 -7 -10 -9 -10 -9
2 0 13 -1 13 -10 0 -5 -8 -12 -11 -17 -7 -9 9 17 28 29 21 4 -3 8 1 8 8 0 9 3
9 10 -2 6 -9 10 -10 10 -3 0 6 -4 15 -10 18 -16 10 -12 25 6 18 8 -3 14 -15
12 -27z m-3160 -26 c0 -16 -4 -30 -10 -30 -6 0 -8 3 -5 6 3 4 2 15 -3 25 -7
12 -6 19 3 22 6 3 12 6 13 6 1 1 1 -12 2 -29z m5162 0 c0 -5 -7 -10 -16 -10
-8 0 -12 5 -9 10 3 6 10 10 16 10 5 0 9 -4 9 -10z m-25 -30 c-3 -5 -11 -10
-16 -10 -6 0 -7 5 -4 10 3 6 11 10 16 10 6 0 7 -4 4 -10z m-5131 -36 c3 -8 2
-12 -4 -9 -6 3 -10 10 -10 16 0 14 7 11 14 -7z m5110 4 c-60 -105 -377 -416
-467 -458 -15 -7 -12 -3 7 12 135 106 187 152 271 241 54 56 111 122 127 147
28 40 55 70 66 70 2 0 0 -6 -4 -12z m-3720 -57 c25 -33 46 -62 46 -66 0 -6
-79 89 -94 113 -18 30 5 7 48 -47z m1703 27 c-3 -8 -6 -5 -6 6 -1 11 2 17 5
13 3 -3 4 -12 1 -19z m-60 -15 c10 -10 13 -14 5 -8 -10 6 -18 4 -27 -8 -7 -9
-16 -17 -21 -17 -4 0 -3 5 3 11 6 6 9 18 6 25 -7 19 11 17 34 -3z m-2340 1
c-3 -3 -12 -4 -19 -1 -8 3 -5 6 6 6 11 1 17 -2 13 -5z m2343 -44 c0 -5 -2 -10
-4 -10 -3 0 -8 5 -11 10 -3 6 -1 10 4 10 6 0 11 -4 11 -10z m-1540 -95 c7 -8
9 -15 6 -15 -4 0 -14 7 -22 15 -9 8 -11 15 -6 15 5 0 15 -7 22 -15z m1280 6
c0 -6 -4 -12 -8 -15 -5 -3 -9 1 -9 9 0 8 4 15 9 15 4 0 8 -4 8 -9z m33 -5 c3
-8 0 -16 -6 -19 -7 -3 -13 3 -13 14 0 22 12 25 19 5z m-84 -23 c-6 -7 -15 -11
-19 -8 -5 3 -12 -4 -15 -16 -6 -17 -9 -19 -16 -8 -8 12 -11 12 -20 -1 -9 -13
-10 -12 -5 3 3 10 6 22 6 27 0 4 8 6 19 3 10 -3 21 -1 24 4 4 6 13 10 21 10
12 0 13 -4 5 -14z m24 -10 c-7 -2 -13 -13 -13 -24 0 -10 -5 -19 -11 -19 -5 0
-8 3 -6 8 2 4 7 15 10 25 4 9 12 17 19 16 10 0 10 -2 1 -6z m-1197 -28 c9 -8
11 -15 6 -15 -5 0 -15 7 -22 15 -7 8 -9 15 -6 15 4 0 14 -7 22 -15z m-637 -21
c18 -13 22 -23 18 -48 -3 -17 -3 -25 0 -18 4 10 15 5 38 -18 59 -57 48 -60
-192 -60 l-215 1 -38 37 c-46 44 -59 82 -35 106 24 24 389 24 424 0z m5019 4
c13 -13 17 -62 4 -54 -5 3 -87 6 -183 7 -96 1 -191 4 -212 8 -37 6 -37 7 -22
29 16 22 20 22 209 22 136 0 195 -3 204 -12z m-4343 -26 c-3 -3 -11 0 -18 7
-9 10 -8 11 6 5 10 -3 15 -9 12 -12z m1118 -3 c-8 -8 -13 -7 -18 2 -5 8 -4 10
3 5 7 -4 12 -2 12 5 0 7 3 9 7 6 4 -4 2 -12 -4 -18z m-70 -3 c3 -8 0 -17 -7
-19 -10 -4 -12 1 -9 14 6 23 9 24 16 5z m1697 -31 c0 -6 -76 -45 -87 -45 -4 1
12 12 37 25 50 27 50 27 50 20z m-1763 -20 c0 -8 -4 -15 -9 -15 -10 0 -11 14
-1 23 9 10 10 9 10 -8z m34 -2 c13 -16 12 -17 -3 -4 -10 7 -18 15 -18 17 0 8
8 3 21 -13z m-168 -12 c-4 -3 -11 -10 -15 -15 -4 -4 -6 1 -5 12 1 12 6 18 15
15 7 -3 10 -9 5 -12z m48 -6 c1 -17 -18 -17 -25 0 -4 11 -1 15 10 13 8 -2 15
-7 15 -13z m-18 -35 c3 -13 0 -20 -10 -20 -8 0 -11 5 -8 10 3 6 2 10 -4 10 -5
0 -11 -6 -14 -12 -2 -7 -7 -10 -10 -7 -9 7 23 50 32 44 5 -2 11 -14 14 -25z
m-737 -1 c19 -22 19 -22 -3 -10 -13 6 -23 16 -23 21 0 15 5 12 26 -11z m84
-64 c0 -2 -13 4 -30 13 -16 9 -30 21 -30 25 0 5 14 -1 30 -13 17 -12 30 -23
30 -25z m1450 9 c421 -3 769 -10 774 -15 5 -5 7 -12 3 -15 -3 -4 -92 -10 -196
-13 -105 -4 -194 -11 -198 -14 -6 -6 11 -11 30 -8 4 0 7 -3 7 -8 0 -5 -12 -11
-27 -15 -16 -3 -313 -5 -660 -3 -480 1 -633 5 -633 14 0 22 21 68 36 79 8 6
33 10 57 8 23 -2 386 -6 807 -10z m1350 -18 c0 -2 -12 -11 -27 -20 l-28 -17
24 20 c23 21 31 25 31 17z m-60 -40 c0 -5 -69 -46 -78 -46 -6 1 69 50 76 50 1
0 2 -2 2 -4z m2006 -22 c-4 -9 -9 -15 -11 -12 -3 3 -3 13 1 22 4 9 9 15 11 12
3 -3 3 -13 -1 -22z m-2156 -64 c-30 -16 -59 -29 -65 -29 -5 0 15 13 45 29 30
16 60 29 65 29 6 0 -15 -13 -45 -29z m-2868 -31 c22 -11 38 -22 36 -25 -3 -2
-59 -5 -126 -6 -67 -1 -122 -5 -122 -10 0 -4 -12 -2 -27 5 -21 9 -27 9 -31 -1
-2 -7 -9 -9 -15 -5 -7 4 -120 8 -252 8 -132 1 -248 5 -257 9 -23 10 -23 43 -1
48 9 2 183 2 386 0 348 -3 372 -4 409 -23z m2143 11 c55 -3 87 -8 70 -9 -16
-2 -41 -5 -55 -7 -91 -14 -1371 -36 -1391 -24 -5 4 -2 16 7 28 l15 22 627 -2
c345 -1 672 -4 727 -8z m2023 4 c14 -4 22 -14 22 -27 0 -11 -3 -17 -7 -14 -3
4 -12 2 -19 -4 -10 -8 -472 -7 -786 2 -47 2 -48 10 -5 32 28 14 82 16 402 16
204 1 380 -2 393 -5z m-1528 -125 c14 -6 -170 -15 -380 -18 -199 -2 -416 -15
-328 -20 15 0 29 -5 32 -10 3 -4 -6 -6 -21 -3 -18 3 -24 1 -19 -6 5 -8 1 -10
-10 -5 -13 5 -16 3 -11 -10 6 -16 -35 -17 -564 -17 -561 0 -571 0 -600 21 -28
20 -38 56 -21 73 6 7 1908 2 1922 -5z m2321 -16 c13 -17 13 -17 -6 -3 -11 8
-22 16 -24 17 -2 2 0 3 6 3 6 0 17 -8 24 -17z m39 -9 c0 -8 -4 -12 -10 -9 -5
3 -10 10 -10 16 0 5 5 9 10 9 6 0 10 -7 10 -16z m-4568 -141 c41 -37 10 -103
-48 -103 -56 0 -83 61 -44 100 24 24 67 26 92 3z m-1848 -104 c-3 -6 0 -15 7
-20 11 -8 10 -12 -5 -24 -11 -8 -25 -15 -30 -14 -6 0 -5 3 2 6 15 6 16 43 1
43 -5 0 -7 5 -4 10 3 6 13 10 21 10 9 0 12 -5 8 -11z m1566 -18 c0 -5 -23 -24
-51 -42 -28 -18 -55 -42 -59 -53 -5 -12 -9 -220 -9 -463 l-1 -443 308 0 309 0
19 41 c22 50 113 149 136 149 13 0 9 -14 -20 -71 l-37 -72 -3 -168 -4 -169
-609 0 c-569 0 -664 4 -568 25 46 10 134 100 148 150 7 26 11 207 11 527 l0
488 -70 47 c-38 27 -69 51 -70 56 0 4 128 7 285 7 161 0 285 -4 285 -9z m3000
2 c0 -5 -16 -21 -35 -36 -19 -15 -35 -36 -35 -45 0 -20 168 -292 180 -292 3 0
47 62 98 138 99 148 110 180 67 200 -14 6 -25 18 -25 27 0 13 32 15 245 15
135 0 245 -4 245 -8 0 -5 -15 -16 -34 -24 -61 -30 -104 -78 -192 -216 -48 -75
-120 -185 -161 -245 -40 -59 -75 -118 -79 -132 -5 -21 24 -70 169 -288 97
-145 193 -279 213 -297 21 -18 62 -44 91 -57 29 -14 53 -26 53 -29 0 -2 -141
-4 -312 -4 l-313 0 32 20 c18 10 39 30 49 44 15 24 15 28 -6 63 -47 81 -165
263 -171 263 -8 0 -209 -307 -209 -320 0 -7 11 -21 25 -32 14 -11 25 -24 25
-29 0 -5 -105 -9 -255 -9 -140 0 -255 4 -255 8 0 4 16 14 36 21 71 26 127 92
350 416 149 215 140 193 103 257 -57 96 -252 402 -288 451 -32 43 -139 127
-162 127 -5 0 -9 5 -9 10 0 6 100 10 280 10 154 0 280 -3 280 -7z m-4544 -42
c-4 -5 0 -12 6 -14 8 -3 5 -6 -6 -6 -13 -1 -17 -6 -13 -20 3 -13 1 -18 -8 -14
-24 8 -25 32 -2 48 25 17 31 19 23 6z m3884 -25 c0 -19 -9 -27 -47 -41 -27
-10 -54 -25 -60 -33 -10 -12 -13 -109 -13 -404 0 -315 -3 -403 -16 -466 -40
-197 -182 -374 -366 -455 -101 -45 -184 -61 -313 -61 -143 1 -214 17 -335 76
-116 56 -240 178 -293 288 -63 129 -67 159 -67 500 0 168 -3 355 -6 416 l-7
110 -58 23 c-44 17 -59 28 -59 42 0 18 11 19 275 19 264 0 275 -1 275 -19 0
-15 -14 -24 -57 -39 l-58 -19 0 -404 c0 -403 0 -404 24 -464 34 -84 133 -183
216 -215 83 -32 216 -33 295 -2 114 45 179 113 222 233 22 62 23 78 26 442 4
426 8 400 -73 432 -32 12 -45 22 -45 36 0 18 12 19 268 22 147 1 268 3 270 5
1 1 2 -9 2 -22z m-770 -46 c58 -58 -21 -148 -82 -93 -37 34 -8 113 42 113 11
0 29 -9 40 -20z m-3095 0 c3 -5 1 -10 -4 -10 -6 0 -11 5 -11 10 0 6 2 10 4 10
3 0 8 -4 11 -10z m42 -16 c-3 -3 -12 -4 -19 -1 -8 3 -5 6 6 6 11 1 17 -2 13
-5z m3 -30 c0 -2 -7 -4 -15 -4 -8 0 -15 4 -15 10 0 5 7 7 15 4 8 -4 15 -8 15
-10z m6224 -15 c-8 -14 -24 -10 -24 6 0 9 6 12 15 9 8 -4 12 -10 9 -15z
m-6206 -34 c-3 -3 -9 2 -12 12 -6 14 -5 15 5 6 7 -7 10 -15 7 -18z m1919 3
c46 -43 17 -108 -49 -108 -36 0 -58 24 -58 65 0 59 63 85 107 43z m-1945 -40
c-9 -9 -15 -9 -24 0 -9 9 -7 12 12 12 19 0 21 -3 12 -12z m6198 -3 c-7 -8 -17
-15 -22 -15 -11 0 14 29 26 30 5 0 3 -7 -4 -15z m-45 -5 c3 -5 1 -10 -4 -10
-6 0 -11 5 -11 10 0 6 2 10 4 10 3 0 8 -4 11 -10z m-5343 -107 c29 -33 31 -60
7 -82 -29 -27 -64 -27 -83 1 -21 30 -20 54 4 78 25 25 52 26 72 3z m4478 -13
c25 -25 25 -52 1 -74 -27 -25 -72 -17 -90 15 -13 24 -13 29 2 53 21 32 59 34
87 6z m-2247 -160 c20 -44 42 -72 80 -101 29 -23 53 -45 55 -49 1 -4 -10 -13
-26 -19 -42 -18 -111 -92 -127 -137 l-13 -39 -20 45 c-19 44 -96 130 -116 130
-6 0 -4 5 4 10 12 8 10 10 -8 10 -21 0 -17 6 31 50 36 33 62 68 78 105 13 30
26 55 29 55 3 0 18 -27 33 -60z m-1253 30 c24 -24 26 -63 4 -84 -22 -23 -81
-21 -94 3 -36 69 36 135 90 81z m4237 -46 c-3 -3 -12 -4 -19 -1 -8 3 -5 6 6 6
11 1 17 -2 13 -5z m-1943 -85 c48 -38 26 -136 -31 -140 -63 -4 -97 23 -97 77
0 28 7 42 28 60 33 29 65 30 100 3z m1861 -167 c-3 -3 -11 0 -18 7 -9 10 -8
11 6 5 10 -3 15 -9 12 -12z m-60 -240 c-5 -13 -8 -14 -15 -3 -5 8 -3 19 3 26
14 15 22 1 12 -23z m-35 -64 c-1 -14 -24 -48 -33 -48 -3 0 -1 14 4 30 11 30
29 41 29 18z m-5526 -17 c4 -5 -3 -7 -14 -4 -23 6 -26 13 -6 13 8 0 17 -4 20
-9z m22 -39 c1 -7 0 -8 -3 -2 -2 5 -9 8 -14 4 -5 -3 -9 0 -9 6 0 15 23 7 26
-8z m15 -59 c13 -16 12 -17 -3 -4 -10 7 -18 15 -18 17 0 8 8 3 21 -13z m49
-19 c0 -8 -19 -13 -24 -6 -3 5 1 9 9 9 8 0 15 -2 15 -3z m5351 -17 c-10 -9
-11 -8 -5 6 3 10 9 15 12 12 3 -3 0 -11 -7 -18z m-5391 -1 c0 -2 -7 -9 -15
-16 -13 -11 -14 -10 -9 4 5 14 24 23 24 12z m40 -70 c0 -3 -4 -8 -10 -11 -5
-3 -10 -1 -10 4 0 6 5 11 10 11 6 0 10 -2 10 -4z m5251 -59 c-10 -9 -11 -8 -5
6 3 10 9 15 12 12 3 -3 0 -11 -7 -18z m-5233 -12 c-3 -3 -9 2 -12 12 -6 14 -5
15 5 6 7 -7 10 -15 7 -18z m11 -34 c9 -6 10 -11 2 -15 -6 -4 -11 -2 -11 5 0 6
-8 9 -20 6 -11 -3 -18 -1 -14 4 7 11 25 11 43 0z m5236 -21 c3 -5 -1 -10 -10
-10 -9 0 -13 5 -10 10 3 6 8 10 10 10 2 0 7 -4 10 -10z m-45 -50 c0 -5 -4 -10
-10 -10 -5 0 -10 5 -10 10 0 6 5 10 10 10 6 0 10 -4 10 -10z m-5145 -40 c3 -5
-1 -10 -10 -10 -9 0 -13 5 -10 10 3 6 8 10 10 10 2 0 7 -4 10 -10z m138 -107
c-7 -3 -13 -11 -13 -18 0 -8 -4 -16 -9 -19 -5 -4 -8 2 -7 11 2 10 -4 21 -13
24 -9 4 -1 7 19 6 19 0 29 -2 23 -4z m97 -97 c0 -3 -4 -8 -10 -11 -5 -3 -10
-1 -10 4 0 6 5 11 10 11 6 0 10 -2 10 -4z m4750 -26 c0 -5 -5 -10 -11 -10 -5
0 -7 5 -4 10 3 6 8 10 11 10 2 0 4 -4 4 -10z m-80 -40 c0 -5 -7 -10 -15 -10
-8 0 -15 -5 -15 -12 0 -6 -3 -8 -7 -4 -5 4 1 14 11 22 23 17 26 17 26 4z m-92
-125 c-3 -3 -9 2 -12 12 -6 14 -5 15 5 6 7 -7 10 -15 7 -18z m-28 -15 c0 -5
-8 -10 -17 -10 -15 0 -16 2 -3 10 19 12 20 12 20 0z m-27 -51 c-4 -13 -9 -17
-15 -11 -11 11 -3 32 12 32 4 0 6 -9 3 -21z m-138 -69 c3 -5 1 -10 -4 -10 -6
0 -11 5 -11 10 0 6 2 10 4 10 3 0 8 -4 11 -10z m-25 -15 c0 -7 -30 -13 -34 -7
-3 4 4 9 15 9 10 1 19 0 19 -2z m-4010 -27 c0 -4 -4 -8 -9 -8 -6 0 -12 4 -15
8 -3 5 1 9 9 9 8 0 15 -4 15 -9z m3965 -19 c-4 -5 -2 -9 3 -9 6 0 12 7 16 15
3 8 11 15 18 15 10 0 10 -2 0 -9 -7 -4 -12 -14 -10 -22 2 -8 -3 -12 -12 -10
-53 13 -55 13 -40 2 8 -6 10 -11 4 -11 -21 0 -24 14 -6 30 17 18 37 17 27 -1z
m-75 -39 c-6 -11 -12 -20 -14 -20 -2 0 -2 9 1 20 3 11 9 20 15 20 5 0 4 -9 -2
-20z m-40 -44 c-7 -7 -13 -7 -20 0 -6 6 -3 10 10 10 13 0 16 -4 10 -10z m-65
-36 c-3 -5 -10 -10 -16 -10 -5 0 -9 5 -9 10 0 6 7 10 16 10 8 0 12 -4 9 -10z
m-71 -82 c-10 -16 -22 -7 -17 13 4 15 8 17 14 8 4 -7 5 -17 3 -21z m-43 -37
c-12 -21 -41 -29 -41 -11 0 5 8 7 18 4 14 -5 14 -4 2 4 -8 6 -17 9 -21 6 -4
-2 -11 1 -15 7 -5 8 2 10 24 7 24 -3 29 -1 24 11 -4 12 -2 13 7 5 10 -9 10
-17 2 -33z m-101 -9 c0 -1 -9 2 -20 8 -11 6 -20 15 -20 20 0 6 9 2 20 -7 11
-10 20 -19 20 -21z m-70 -7 c0 -7 -30 -13 -34 -7 -3 4 4 9 15 9 10 1 19 0 19
-2z m34 -9 c-10 -8 -21 -12 -24 -10 -5 6 21 24 34 24 6 0 1 -6 -10 -14z
m-3020 -22 c5 -13 3 -14 -6 -7 -7 6 -20 13 -28 16 -10 4 -8 6 6 6 12 1 25 -6
28 -15z m2931 6 c-3 -5 -12 -10 -18 -10 -7 0 -6 4 3 10 19 12 23 12 15 0z
m-65 -10 c0 -5 -2 -10 -4 -10 -3 0 -8 5 -11 10 -3 6 -1 10 4 10 6 0 11 -4 11
-10z m-60 -50 c0 -5 -4 -10 -10 -10 -5 0 -10 5 -10 10 0 6 5 10 10 10 6 0 10
-4 10 -10z m-2630 -10 c0 -5 -4 -10 -9 -10 -6 0 -13 5 -16 10 -3 6 1 10 9 10
9 0 16 -4 16 -10z m2550 -6 c0 -8 -19 -13 -24 -6 -3 5 1 9 9 9 8 0 15 -2 15
-3z m70 -5 c13 -9 12 -10 -2 -5 -10 3 -18 1 -18 -3 0 -5 -10 -7 -22 -4 -19 4
-20 3 -8 -6 13 -9 13 -11 -2 -11 -25 0 -22 19 5 30 29 12 29 12 47 -1z m-2530
-14 c0 -9 -6 -12 -16 -8 -13 5 -13 7 -2 14 17 11 18 11 18 -6z m100 5 c0 -5
-5 -10 -11 -10 -5 0 -7 5 -4 10 3 6 8 10 11 10 2 0 4 -4 4 -10z m2295 0 c3 -5
1 -10 -4 -10 -6 0 -11 5 -11 10 0 6 2 10 4 10 3 0 8 -4 11 -10z m-2345 -14 c0
-3 -4 -8 -10 -11 -5 -3 -10 -1 -10 4 0 6 5 11 10 11 6 0 10 -2 10 -4z m2370
-17 c0 -8 4 -8 14 0 10 9 15 8 19 -3 9 -24 -5 -26 -43 -5 -30 15 -32 18 -12
19 12 0 22 -5 22 -11z m-90 -20 c0 -8 4 -8 15 1 8 6 19 10 24 8 6 -1 -1 -8
-14 -14 -19 -9 -28 -9 -42 2 -17 13 -17 13 0 14 9 0 17 -5 17 -11z m-1946 -17
c3 -5 -1 -9 -9 -9 -8 0 -12 4 -9 9 3 4 7 8 9 8 2 0 6 -4 9 -8z m1877 -5 c-7
-7 -14 -8 -21 -1 -6 6 -2 10 12 11 16 2 18 -1 9 -10z m-51 -7 c0 -5 -5 -10
-11 -10 -5 0 -7 5 -4 10 3 6 8 10 11 10 2 0 4 -4 4 -10z m-1935 -12 c4 -3 2
-9 -3 -12 -5 -3 -15 1 -21 8 -10 11 -9 14 3 12 9 -1 18 -5 21 -8z m1710 -28
c8 -13 -5 -13 -25 0 -13 8 -13 10 2 10 9 0 20 -4 23 -10z m-30 -18 c-3 -3 -11
0 -18 7 -9 10 -8 11 6 5 10 -3 15 -9 12 -12z m-45 -8 c0 -8 4 -13 9 -9 5 3 12
1 16 -5 7 -11 -5 -13 -29 -4 -17 7 -22 34 -6 34 6 0 10 -7 10 -16z m-1350 -24
c0 -5 -2 -10 -4 -10 -3 0 -8 5 -11 10 -3 6 -1 10 4 10 6 0 11 -4 11 -10z m148
-12 c15 -15 16 -28 2 -28 -5 0 -10 7 -10 16 0 8 -4 12 -10 9 -5 -3 -10 -1 -10
4 0 14 13 14 28 -1z m98 -3 c-3 -9 0 -15 9 -15 8 0 15 -4 15 -9 0 -5 -9 -7
-20 -4 -11 3 -20 10 -20 15 0 6 -7 8 -15 5 -8 -4 -17 -2 -20 3 -5 7 8 12 49
19 4 0 6 -6 2 -14z m172 -3 c2 -7 -1 -12 -8 -12 -6 0 -9 4 -6 9 4 5 1 12 -4
14 -6 3 -5 4 2 3 6 -1 14 -8 16 -14z m663 1 c13 -16 12 -17 -3 -4 -10 7 -18
15 -18 17 0 8 8 3 21 -13z m183 -4 c-3 -5 -10 -7 -15 -3 -5 3 -7 10 -3 15 3 5
10 7 15 3 5 -3 7 -10 3 -15z m-756 -11 c-2 -7 -8 -18 -15 -25 -14 -15 -37 -18
-28 -3 3 6 0 10 -7 10 -10 1 26 22 50 29 1 1 1 -5 0 -11z m-171 -4 c-3 -3 -12
-4 -19 -1 -8 3 -5 6 6 6 11 1 17 -2 13 -5z m-124 -11 c-7 -2 -19 -2 -25 0 -7
3 -2 5 12 5 14 0 19 -2 13 -5z m117 -13 c0 -5 -4 -10 -10 -10 -5 0 -10 5 -10
10 0 6 5 10 10 10 6 0 10 -4 10 -10z m500 0 c0 -5 -4 -10 -10 -10 -5 0 -10 5
-10 10 0 6 5 10 10 10 6 0 10 -4 10 -10z"/>
<path d="M8337 4823 c-4 -3 -7 -14 -7 -24 0 -13 5 -16 16 -12 11 4 12 8 4 13
-7 4 -9 13 -6 19 8 12 3 15 -7 4z"/>
<path d="M1986 4493 c-6 -14 -5 -15 5 -6 7 7 10 15 7 18 -3 3 -9 -2 -12 -12z"/>
<path d="M3425 7320 c-3 -5 -1 -10 4 -10 6 0 11 5 11 10 0 6 -2 10 -4 10 -3 0
-8 -4 -11 -10z"/>
<path d="M7523 6935 c0 -8 6 -16 14 -19 11 -4 11 -1 3 14 -13 24 -17 25 -17 5z"/>
<path d="M3575 6730 c-3 -5 -1 -10 4 -10 6 0 11 5 11 10 0 6 -2 10 -4 10 -3 0
-8 -4 -11 -10z"/>
<path d="M6630 6776 c0 -2 8 -10 18 -17 15 -13 16 -12 3 4 -13 16 -21 21 -21
13z"/>
<path d="M6765 6600 c3 -5 8 -10 11 -10 2 0 4 5 4 10 0 6 -5 10 -11 10 -5 0
-7 -4 -4 -10z"/>
<path d="M4512 6478 c3 -95 5 -103 23 -103 11 0 19 -6 18 -12 -2 -7 1 -13 6
-13 5 0 12 6 14 13 4 10 6 10 6 0 1 -9 6 -9 19 3 9 8 31 27 48 42 17 15 33 34
37 42 4 12 6 11 6 -3 1 -17 -43 -67 -59 -67 -4 0 -7 -7 -7 -15 0 -20 13 -19
21 1 6 16 8 16 24 0 23 -20 42 -21 42 -1 0 8 7 15 15 15 19 0 19 -14 0 -30 -9
-7 -13 -15 -11 -18 3 -2 12 3 21 12 13 13 18 42 21 126 l4 110 -126 0 -125 0
3 -102z m44 -15 c-7 -7 -26 7 -26 19 0 6 6 6 15 -2 9 -7 13 -15 11 -17z m64
17 c0 -5 -4 -10 -10 -10 -5 0 -10 5 -10 10 0 6 5 10 10 10 6 0 10 -4 10 -10z
m114 -15 c-4 -8 -8 -15 -10 -15 -2 0 -4 7 -4 15 0 8 4 15 10 15 5 0 7 -7 4
-15z m-79 -5 c3 -5 -1 -10 -10 -10 -9 0 -13 5 -10 10 3 6 8 10 10 10 2 0 7 -4
10 -10z m-75 -10 c0 -5 -5 -10 -11 -10 -5 0 -7 5 -4 10 3 6 8 10 11 10 2 0 4
-4 4 -10z m32 -42 c-9 -9 -12 -7 -12 12 0 19 3 21 12 12 9 -9 9 -15 0 -24z
m-62 12 c0 -5 -4 -10 -10 -10 -5 0 -10 5 -10 10 0 6 5 10 10 10 6 0 10 -4 10
-10z m190 -11 c0 -5 -4 -9 -10 -9 -5 0 -10 7 -10 16 0 8 5 12 10 9 6 -3 10
-10 10 -16z m-150 -8 c0 -12 -20 -25 -27 -18 -7 7 6 27 18 27 5 0 9 -4 9 -9z
m110 -8 c0 -5 -5 -15 -10 -23 -8 -12 -10 -11 -10 8 0 12 5 22 10 22 6 0 10 -3
10 -7z"/>
<path d="M4829 6573 c-4 -40 0 -234 5 -242 9 -14 46 -15 46 -1 0 6 -6 10 -14
10 -19 0 -30 17 -17 25 6 3 19 -2 29 -12 30 -29 60 -43 77 -37 8 3 15 10 15
15 0 5 7 9 15 9 18 0 20 -27 3 -32 -7 -3 -6 -7 5 -11 11 -4 17 -1 17 8 0 8 6
15 14 15 8 0 17 7 20 16 3 8 10 13 14 10 11 -6 9 -66 -2 -84 -9 -15 0 -29 11
-18 7 7 10 49 14 189 1 37 6 67 12 67 5 0 4 7 -3 15 -10 13 -9 15 11 15 22 0
22 0 3 15 -16 13 -17 16 -4 25 10 7 -29 10 -127 10 -79 0 -143 -3 -144 -7z
m41 -123 c0 -5 -4 -10 -10 -10 -5 0 -10 5 -10 10 0 6 5 10 10 10 6 0 10 -4 10
-10z m190 -10 c0 -5 -2 -10 -4 -10 -3 0 -8 5 -11 10 -3 6 -1 10 4 10 6 0 11
-4 11 -10z m-143 -16 c-3 -3 -12 -4 -19 -1 -8 3 -5 6 6 6 11 1 17 -2 13 -5z
m113 -9 c0 -8 -4 -15 -10 -15 -5 0 -10 7 -10 15 0 8 5 15 10 15 6 0 10 -7 10
-15z m-160 -16 c0 -5 -4 -9 -10 -9 -5 0 -10 7 -10 16 0 8 5 12 10 9 6 -3 10
-10 10 -16z m84 6 c3 -8 1 -15 -4 -15 -6 0 -10 7 -10 15 0 8 2 15 4 15 2 0 6
-7 10 -15z m43 -31 c-9 -9 -28 6 -21 18 4 6 10 6 17 -1 6 -6 8 -13 4 -17z m59
-1 c-10 -10 -19 5 -10 18 6 11 8 11 12 0 2 -7 1 -15 -2 -18z m-136 2 c0 -9 7
-15 16 -13 10 2 19 -3 21 -9 7 -18 -17 -16 -39 4 -20 18 -24 33 -8 33 6 0 10
-7 10 -15z m110 -25 c0 -5 -4 -10 -10 -10 -5 0 -10 5 -10 10 0 6 5 10 10 10 6
0 10 -4 10 -10z"/>
<path d="M5132 6573 c16 -4 18 -20 19 -131 0 -70 0 -140 -1 -156 0 -17 3 -26
7 -22 4 4 8 19 8 34 1 14 6 27 12 29 7 3 10 -6 8 -24 -5 -45 5 -85 20 -73 6 5
15 7 18 3 4 -3 7 1 7 10 0 10 7 17 15 17 20 0 19 -27 -1 -38 -15 -8 -15 -10 0
-15 10 -4 15 -3 11 3 -10 16 27 25 39 9 6 -8 25 -21 41 -30 18 -9 30 -23 29
-35 0 -23 41 -27 42 -4 3 40 5 135 5 230 1 58 2 126 4 153 l2 47 -151 -1 c-83
-1 -143 -3 -134 -6z m88 -143 c0 -5 -2 -10 -4 -10 -3 0 -8 5 -11 10 -3 6 -1
10 4 10 6 0 11 -4 11 -10z m175 -40 c3 -5 1 -10 -4 -10 -6 0 -11 5 -11 10 0 6
2 10 4 10 3 0 8 -4 11 -10z m-175 -15 c0 -8 -2 -15 -4 -15 -2 0 -6 7 -10 15
-3 8 -1 15 4 15 6 0 10 -7 10 -15z m70 -1 c0 -8 -5 -12 -10 -9 -6 4 -8 11 -5
16 9 14 15 11 15 -7z m-100 -15 c0 -5 -4 -9 -10 -9 -5 0 -10 7 -10 16 0 8 5
12 10 9 6 -3 10 -10 10 -16z m170 6 c0 -8 -2 -15 -4 -15 -2 0 -6 7 -10 15 -3
8 -1 15 4 15 6 0 10 -7 10 -15z m-103 -21 c-9 -9 -28 6 -21 18 4 6 10 6 17 -1
6 -6 8 -13 4 -17z m73 12 c0 -3 -4 -8 -10 -11 -5 -3 -10 -1 -10 4 0 6 5 11 10
11 6 0 10 -2 10 -4z m-110 -31 c0 -8 -4 -15 -10 -15 -5 0 -10 7 -10 15 0 8 5
15 10 15 6 0 10 -7 10 -15z m74 0 c3 -9 0 -15 -9 -15 -8 0 -15 7 -15 15 0 8 4
15 9 15 5 0 11 -7 15 -15z m106 5 c0 -5 -4 -10 -10 -10 -5 0 -10 5 -10 10 0 6
5 10 10 10 6 0 10 -4 10 -10z m-36 -21 c-3 -5 -10 -7 -15 -3 -5 3 -7 10 -3 15
3 5 10 7 15 3 5 -3 7 -10 3 -15z m-113 -22 c-13 -13 -26 -3 -16 12 3 6 11 8
17 5 6 -4 6 -10 -1 -17z m74 14 c3 -5 1 -12 -5 -16 -5 -3 -10 1 -10 9 0 18 6
21 15 7z m-105 -31 c0 -11 -4 -20 -10 -20 -5 0 -10 9 -10 20 0 11 5 20 10 20
6 0 10 -9 10 -20z m180 16 c0 -3 -4 -8 -10 -11 -5 -3 -10 -1 -10 4 0 6 5 11
10 11 6 0 10 -2 10 -4z m-102 -18 c-6 -18 -28 -21 -28 -4 0 9 7 16 16 16 9 0
14 -5 12 -12z m70 -6 c2 -7 -3 -12 -12 -12 -9 0 -16 7 -16 16 0 17 22 14 28
-4z m-42 -29 c-4 -11 -1 -13 14 -8 13 4 22 1 26 -9 3 -9 12 -16 20 -16 16 0
19 -16 4 -25 -6 -3 -13 1 -16 9 -3 9 -14 16 -24 16 -22 0 -54 35 -45 50 9 15
27 1 21 -17z m74 9 c0 -13 -12 -22 -22 -16 -10 6 -1 24 13 24 5 0 9 -4 9 -8z"/>
<path d="M4830 6294 c0 -8 5 -12 10 -9 6 4 8 11 5 16 -9 14 -15 11 -15 -7z"/>
<path d="M4875 6300 c-4 -6 7 -10 27 -10 25 0 29 3 18 10 -19 13 -37 13 -45 0z"/>
<path d="M5033 6293 c-4 -10 -11 -21 -17 -25 -7 -5 -5 -8 5 -8 10 0 19 10 21
25 6 29 0 33 -9 8z"/>
<path d="M5315 6170 c-16 -7 -17 -9 -3 -9 9 -1 20 4 23 9 7 11 7 11 -20 0z"/>
<path d="M5376 6101 c15 -38 16 -54 3 -63 -12 -8 -11 -9 1 -5 21 5 25 84 4 84
-10 0 -13 -6 -8 -16z"/>
<path d="M5385 5960 c3 -5 8 -10 11 -10 2 0 4 5 4 10 0 6 -5 10 -11 10 -5 0
-7 -4 -4 -10z"/>
<path d="M5525 5521 c-3 -5 -2 -12 3 -15 5 -3 9 1 9 9 0 17 -3 19 -12 6z"/>
<path d="M5505 5477 c-6 -7 -10 -18 -10 -26 0 -18 21 -26 30 -12 4 7 -1 8 -12
4 -16 -6 -16 -5 -5 10 16 19 12 41 -3 24z"/>
<path d="M5370 5281 c0 -5 7 -12 16 -15 14 -5 15 -4 4 9 -14 17 -20 19 -20 6z"/>
<path d="M5360 5181 c0 -6 4 -12 8 -15 5 -3 9 1 9 9 0 8 -4 15 -9 15 -4 0 -8
-4 -8 -9z"/>
<path d="M5325 5150 c-3 -5 -2 -10 4 -10 5 0 13 5 16 10 3 6 2 10 -4 10 -5 0
-13 -4 -16 -10z"/>
<path d="M5290 4975 c0 -8 4 -15 8 -15 5 0 9 7 9 15 0 8 -4 15 -9 15 -4 0 -8
-7 -8 -15z"/>
<path d="M5043 4730 c-1 -11 3 -23 9 -26 7 -4 8 -2 4 4 -4 7 -3 12 3 12 6 0 8
7 5 15 -9 21 -19 19 -21 -5z"/>
<path d="M5010 4726 c0 -8 -6 -17 -12 -19 -10 -4 -10 -6 -1 -6 7 -1 17 8 23
19 7 14 7 20 0 20 -5 0 -10 -6 -10 -14z"/>
<path d="M4922 4615 c15 -16 20 -17 30 -6 11 11 10 13 0 7 -7 -4 -21 -2 -30 5
-15 12 -15 11 0 -6z"/>
<path d="M4870 4600 c-23 -7 -23 -8 -3 -9 12 -1 23 -7 26 -13 3 -7 4 -3 4 10
-1 12 -1 22 -2 21 0 -1 -11 -5 -25 -9z"/>
<path d="M4910 4579 c0 -11 27 -12 34 -1 2 4 -4 9 -15 9 -10 1 -19 -2 -19 -8z"/>
<path d="M4720 4576 c0 -2 7 -7 16 -10 8 -3 12 -2 9 4 -6 10 -25 14 -25 6z"/>
<path d="M4673 4528 c-2 -16 1 -18 10 -9 7 7 8 14 1 21 -6 6 -10 2 -11 -12z"/>
<path d="M4840 4519 c0 -5 5 -7 10 -4 6 3 10 8 10 11 0 2 -4 4 -10 4 -5 0 -10
-5 -10 -11z"/>
<path d="M4644 4487 c-4 -7 -3 -9 1 -4 5 4 17 0 27 -10 12 -10 18 -12 18 -4 0
7 5 9 11 5 7 -4 10 -1 7 6 -5 17 -56 22 -64 7z"/>
<path d="M4578 4473 c6 -2 18 -2 25 0 6 3 1 5 -13 5 -14 0 -19 -2 -12 -5z"/>
<path d="M4520 4361 c0 -17 2 -31 4 -31 8 0 13 51 5 56 -5 3 -9 -9 -9 -25z"/>
<path d="M4427 4290 c-3 -11 -1 -20 4 -20 5 0 9 9 9 20 0 11 -2 20 -4 20 -2 0
-6 -9 -9 -20z"/>
<path d="M5230 4901 c0 -6 4 -13 10 -16 6 -3 7 1 4 9 -7 18 -14 21 -14 7z"/>
<path d="M2411 4225 c12 -19 25 -32 30 -29 5 3 9 0 9 -7 0 -9 3 -10 11 -2 11
11 79 -3 95 -20 13 -13 24 -7 24 13 0 26 16 26 30 -1 9 -15 15 -18 25 -9 8 7
15 7 19 1 9 -14 45 -9 39 5 -2 6 3 14 11 17 9 4 16 11 16 17 0 6 -7 4 -16 -5
-14 -13 -19 -14 -25 -3 -7 10 -9 9 -9 -4 0 -19 -15 -24 -24 -9 -8 12 20 34 33
27 5 -4 12 -2 16 4 3 5 15 10 25 10 14 0 19 -6 17 -21 -1 -12 3 -23 8 -26 15
-5 17 35 3 44 -8 4 -6 8 5 12 9 3 -15 7 -53 7 -52 1 -70 -2 -70 -12 0 -7 -5
-16 -10 -19 -13 -8 -50 3 -50 15 0 5 6 7 14 4 8 -3 17 0 21 6 5 8 -18 11 -84
8 -50 -2 -91 0 -91 5 0 4 -9 7 -20 7 -19 0 -19 -1 1 -35z m216 -47 c-3 -8 -6
-5 -6 6 -1 11 2 17 5 13 3 -3 4 -12 1 -19z"/>
<path d="M2771 4184 c0 -11 3 -14 6 -6 3 7 2 16 -1 19 -3 4 -6 -2 -5 -13z"/>
<path d="M2800 4180 c0 -5 5 -10 11 -10 5 0 7 5 4 10 -3 6 -8 10 -11 10 -2 0
-4 -4 -4 -10z"/>
<path d="M2715 4170 c3 -5 8 -10 11 -10 2 0 4 5 4 10 0 6 -5 10 -11 10 -5 0
-7 -4 -4 -10z"/>
<path d="M3242 2600 c0 -14 2 -19 5 -12 2 6 2 18 0 25 -3 6 -5 1 -5 -13z"/>
<path d="M3295 2600 c-3 -6 1 -7 9 -4 18 7 21 14 7 14 -6 0 -13 -4 -16 -10z"/>
<path d="M3295 2570 c3 -5 8 -10 11 -10 2 0 4 5 4 10 0 6 -5 10 -11 10 -5 0
-7 -4 -4 -10z"/>
<path d="M3308 2558 c-20 -20 -1 -27 19 -7 14 14 33 3 33 -19 0 -15 -2 -15
-11 -2 -7 10 -12 11 -15 4 -3 -7 -14 -10 -24 -7 -13 3 -20 0 -20 -8 0 -12 -2
-12 -9 0 -5 8 -7 20 -4 28 4 9 0 11 -11 7 -10 -4 -17 -1 -17 7 -1 8 -5 -22 -9
-66 -6 -67 -18 -110 -48 -168 -2 -4 200 -6 450 -5 l453 3 2 66 2 66 -239 -1
c-132 -1 -240 -5 -240 -9 0 -5 -5 -5 -12 -1 -6 4 -48 8 -92 10 -45 1 -89 2
-98 3 -14 1 -18 11 -19 44 -2 30 -3 34 -6 14 -3 -16 -9 -26 -16 -24 -7 3 -10
11 -8 18 2 8 4 21 5 29 0 8 6 19 11 23 6 5 4 7 -5 4 -8 -2 -24 -1 -35 3 -13 4
-26 0 -37 -12z m272 -138 c0 -5 -2 -10 -4 -10 -3 0 -8 5 -11 10 -3 6 -1 10 4
10 6 0 11 -4 11 -10z"/>
<path d="M6781 2624 c0 -11 3 -14 6 -6 3 7 2 16 -1 19 -3 4 -6 -2 -5 -13z"/>
<path d="M6918 2628 c-7 -17 15 -19 29 -3 4 4 3 5 -4 2 -6 -4 -13 -2 -15 5 -3
8 -6 6 -10 -4z"/>
<path d="M6474 2596 c-3 -8 -12 -17 -20 -20 -18 -7 -45 4 -38 15 3 5 3 9 0 9
-11 0 -55 -74 -49 -83 3 -6 2 -8 -3 -5 -5 3 -42 -39 -81 -93 l-73 -99 74 0 75
0 34 43 c54 68 127 175 127 186 0 6 5 11 11 11 5 0 7 5 3 11 -4 8 -11 5 -18
-9 -8 -16 -15 -18 -28 -11 -23 13 -23 0 -2 -16 16 -11 16 -12 0 -18 -10 -4
-15 -3 -11 3 8 13 -1 13 -27 -1 -13 -7 -18 -7 -14 -1 3 6 2 13 -4 17 -5 3 -10
13 -10 21 0 8 5 12 10 9 6 -4 8 -10 5 -15 -3 -4 3 -11 12 -14 10 -4 14 -4 10
0 -4 4 3 22 14 41 11 18 18 33 15 33 -4 0 -9 -6 -12 -14z m-66 -41 c-1 -13 -6
-21 -10 -17 -5 5 -6 16 -2 25 9 24 14 21 12 -8z"/>
<path d="M6935 2590 c-4 -6 -10 -8 -15 -5 -5 3 -11 1 -15 -5 -4 -6 -10 -8 -14
-5 -5 2 -6 -8 -3 -23 l5 -27 12 29 12 29 16 -33 c12 -24 13 -29 3 -20 -11 9
-17 7 -24 -6 -9 -16 -12 -14 -29 13 -15 24 -22 29 -33 22 -12 -8 -12 -12 -2
-16 10 -4 10 -8 0 -20 -10 -12 -9 -18 6 -28 9 -7 18 -17 18 -22 1 -19 11 -32
19 -27 5 3 9 2 8 -3 -3 -19 2 -34 9 -29 5 3 9 -1 9 -8 0 -7 10 -30 22 -50 l23
-36 99 0 100 0 -27 35 c-14 19 -31 32 -37 28 -6 -3 -7 -1 -3 6 10 16 -45 89
-64 84 -12 -4 -13 -3 -1 5 11 8 10 15 -8 41 -13 17 -27 28 -33 25 -7 -4 -8 -2
-4 4 8 13 -13 46 -31 49 -7 2 -15 -2 -18 -7z m26 -30 c5 0 9 -8 9 -17 -1 -15
-4 -14 -20 6 -11 12 -17 28 -13 35 5 7 9 5 11 -6 2 -10 8 -18 13 -18z m4 -98
c-3 -3 -11 0 -18 7 -9 10 -8 11 6 5 10 -3 15 -9 12 -12z"/>
<path d="M5701 2764 c0 -11 3 -14 6 -6 3 7 2 16 -1 19 -3 4 -6 -2 -5 -13z"/>
<path d="M5680 2743 c0 -6 8 -17 18 -24 16 -13 16 -13 2 6 -8 11 -16 22 -17
24 -2 2 -3 0 -3 -6z"/>
<path d="M5725 2739 c-4 -6 -5 -12 -2 -15 2 -3 7 2 10 11 7 17 1 20 -8 4z"/>
<path d="M5686 2683 c24 -26 24 -26 5 -45 -11 -10 -25 -18 -30 -18 -5 0 -12
-4 -15 -9 -10 -15 38 1 50 17 9 12 13 12 19 2 4 -7 2 -16 -5 -20 -7 -4 -10
-12 -6 -18 3 -5 -2 -16 -12 -23 -15 -13 -16 -12 -3 4 7 9 11 18 7 18 -22 5
-32 4 -37 -4 -8 -12 -37 2 -42 21 -4 14 -6 13 -12 -5 -4 -13 -12 -20 -18 -16
-6 3 -7 1 -3 -5 4 -7 17 -12 29 -13 21 0 21 -1 2 -8 -11 -5 -26 -7 -34 -6 -9
1 -27 -25 -47 -66 -79 -164 -229 -259 -410 -259 -213 0 -393 127 -455 320 -10
30 -19 46 -20 35 -3 -35 3 -60 15 -67 8 -6 8 -8 -1 -8 -6 0 -14 -8 -16 -17 -4
-14 -5 -12 -6 5 0 12 -5 22 -11 22 -5 0 -10 5 -10 11 0 5 5 7 10 4 6 -3 10 -1
10 4 0 6 -6 11 -13 11 -9 0 -13 12 -12 34 0 22 -3 32 -11 29 -7 -2 -9 -14 -7
-26 5 -22 5 -22 -10 -2 -8 11 -19 17 -23 12 -4 -4 -2 -7 4 -7 7 0 12 -5 12
-11 0 -5 -5 -7 -11 -3 -6 3 -15 0 -21 -7 -6 -10 -8 -3 -7 21 2 53 0 70 -9 70
-4 0 -6 -16 -4 -35 3 -21 0 -35 -7 -35 -6 0 -11 5 -11 12 0 6 -2 9 -5 6 -10
-10 7 -38 19 -31 6 4 5 -1 -2 -10 -15 -18 -7 -77 10 -77 6 0 8 -6 5 -13 -6
-17 35 -99 76 -152 145 -189 418 -277 661 -215 241 61 426 261 453 489 5 43 3
54 -13 67 -16 13 -16 15 -2 10 12 -3 15 -1 11 10 -3 8 -12 13 -19 10 -7 -3
-16 -1 -19 4 -4 6 -10 10 -15 10 -5 0 2 -12 16 -27z m-14 -121 c6 -23 -18 -48
-26 -26 -3 9 -1 12 4 9 6 -3 10 -1 10 4 0 6 -6 11 -12 11 -9 0 -8 4 2 10 8 5
16 10 16 10 1 0 4 -8 6 -18z m-1080 -9 c-6 -3 -10 -8 -8 -12 3 -4 -4 -8 -15
-8 -10 -1 -19 2 -19 6 0 12 8 17 32 18 13 0 17 -1 10 -4z m-52 -13 c0 -5 -2
-10 -4 -10 -3 0 -8 5 -11 10 -3 6 -1 10 4 10 6 0 11 -4 11 -10z m1055 0 c3 -5
-1 -10 -10 -10 -9 0 -13 5 -10 10 3 6 8 10 10 10 2 0 7 -4 10 -10z"/>
<path d="M4641 2664 c0 -11 3 -14 6 -6 3 7 2 16 -1 19 -3 4 -6 -2 -5 -13z"/>
<path d="M5647 2667 c-5 -15 2 -37 13 -37 14 0 18 25 5 37 -10 9 -14 9 -18 0z"/>
<path d="M5589 2653 c-13 -17 -13 -17 6 -3 11 8 22 16 24 17 2 2 0 3 -6 3 -6
0 -17 -8 -24 -17z"/>
<path d="M4490 2641 c0 -25 6 -27 13 -6 4 8 2 17 -3 20 -6 4 -10 -3 -10 -14z"/>
<path d="M5626 2637 c3 -10 9 -15 12 -12 3 3 0 11 -7 18 -10 9 -11 8 -5 -6z"/>
<path d="M4558 2633 c7 -3 16 -2 19 1 4 3 -2 6 -13 5 -11 0 -14 -3 -6 -6z"/>
<path d="M4635 2620 c-3 -5 -1 -10 4 -10 6 0 11 5 11 10 0 6 -2 10 -4 10 -3 0
-8 -4 -11 -10z"/>
<path d="M4558 2613 c7 -3 16 -2 19 1 4 3 -2 6 -13 5 -11 0 -14 -3 -6 -6z"/>
<path d="M8490 4080 c0 -5 5 -10 10 -10 6 0 10 5 10 10 0 6 -4 10 -10 10 -5 0
-10 -4 -10 -10z"/>
<path d="M8476 3935 c4 -8 7 -15 9 -15 1 0 8 7 15 15 10 13 9 15 -8 15 -15 0
-20 -5 -16 -15z"/>
<path d="M8470 3880 c0 -6 7 -10 15 -10 8 0 15 2 15 4 0 2 -7 6 -15 10 -8 3
-15 1 -15 -4z"/>
<path d="M8470 3840 c0 -5 5 -10 10 -10 6 0 10 5 10 10 0 6 -4 10 -10 10 -5 0
-10 -4 -10 -10z"/>
<path d="M1860 3816 c0 -2 9 -6 20 -9 11 -3 18 -1 14 4 -5 9 -34 13 -34 5z"/>
<path d="M8425 3730 c4 -6 11 -8 16 -5 14 9 11 15 -7 15 -8 0 -12 -5 -9 -10z"/>
<path d="M1940 3666 c0 -2 7 -7 16 -10 8 -3 12 -2 9 4 -6 10 -25 14 -25 6z"/>
<path d="M1970 3625 c0 -8 5 -15 10 -15 6 0 10 7 10 15 0 8 -4 15 -10 15 -5 0
-10 -7 -10 -15z"/>
<path d="M8420 3489 c0 -5 5 -7 10 -4 6 3 10 8 10 11 0 2 -4 4 -10 4 -5 0 -10
-5 -10 -11z"/>
<path d="M8375 3470 c3 -5 14 -10 23 -10 15 0 15 2 2 10 -20 13 -33 13 -25 0z"/>
<path d="M8352 3449 c2 -6 8 -10 13 -10 5 0 11 4 13 10 2 6 -4 11 -13 11 -9 0
-15 -5 -13 -11z"/>
<path d="M1990 3406 c0 -9 5 -16 10 -16 6 0 10 4 10 9 0 6 -4 13 -10 16 -5 3
-10 -1 -10 -9z"/>
<path d="M8367 3414 c-4 -4 -7 -14 -7 -23 0 -11 3 -12 11 -4 6 6 10 16 7 23
-2 6 -7 8 -11 4z"/>
<path d="M2096 3261 c-3 -5 1 -11 9 -15 9 -3 15 0 15 9 0 16 -16 20 -24 6z"/>
<path d="M8300 3249 c0 -5 5 -7 10 -4 6 3 10 8 10 11 0 2 -4 4 -10 4 -5 0 -10
-5 -10 -11z"/>
<path d="M2055 3228 c5 -12 18 -18 36 -18 33 0 39 15 9 23 -11 3 -18 1 -14 -4
8 -13 -10 -11 -25 4 -10 10 -11 9 -6 -5z"/>
<path d="M8326 3232 c-2 -4 4 -8 14 -8 10 0 16 4 14 8 -3 4 -9 8 -14 8 -5 0
-11 -4 -14 -8z"/>
<path d="M8310 3190 c0 -5 5 -10 11 -10 5 0 7 5 4 10 -3 6 -8 10 -11 10 -2 0
-4 -4 -4 -10z"/>
<path d="M8248 3146 c-3 -14 0 -27 6 -29 6 -3 11 8 12 24 1 35 -12 38 -18 5z"/>
<path d="M8290 3160 c0 -5 5 -10 11 -10 5 0 7 5 4 10 -3 6 -8 10 -11 10 -2 0
-4 -4 -4 -10z"/>
<path d="M8291 3084 c0 -11 3 -14 6 -6 3 7 2 16 -1 19 -3 4 -6 -2 -5 -13z"/>
<path d="M8257 3021 c-4 -17 -3 -21 5 -13 5 5 8 16 6 23 -3 8 -7 3 -11 -10z"/>
<path d="M8209 2974 c-16 -20 7 -25 25 -5 14 15 14 18 1 18 -8 0 -20 -6 -26
-13z"/>
<path d="M8175 2860 c3 -5 10 -10 16 -10 5 0 9 5 9 10 0 6 -7 10 -16 10 -8 0
-12 -4 -9 -10z"/>
<path d="M8110 2779 c0 -6 -5 -7 -12 -3 -6 4 -8 3 -4 -4 7 -11 46 -12 46 -1 0
4 -7 9 -15 13 -8 3 -15 1 -15 -5z"/>
<path d="M8117 2753 c-3 -5 1 -14 9 -21 12 -10 14 -10 14 2 0 17 -16 30 -23
19z"/>
<path d="M2319 2491 c7 -5 11 -14 7 -20 -5 -7 -1 -9 8 -5 24 9 19 34 -6 34
-17 0 -19 -3 -9 -9z"/>
<path d="M8031 2491 c-8 -5 -9 -11 -3 -15 5 -3 12 1 16 9 6 17 6 18 -13 6z"/>
<path d="M8055 2450 c3 -5 8 -10 11 -10 2 0 4 5 4 10 0 6 -5 10 -11 10 -5 0
-7 -4 -4 -10z"/>
<path d="M7972 2406 c-1 -15 1 -17 7 -7 5 7 15 17 22 22 10 6 8 8 -7 7 -12 -1
-21 -10 -22 -22z"/>
<path d="M2335 2380 c-3 -5 -1 -10 4 -10 6 0 11 5 11 10 0 6 -2 10 -4 10 -3 0
-8 -4 -11 -10z"/>
<path d="M2366 2372 c5 -4 12 -11 15 -15 3 -5 9 -2 12 5 3 9 -3 14 -15 15 -11
1 -16 -1 -12 -5z"/>
<path d="M2355 2330 c3 -5 8 -10 11 -10 2 0 4 5 4 10 0 6 -5 10 -11 10 -5 0
-7 -4 -4 -10z"/>
<path d="M7950 2325 c0 -9 -6 -12 -17 -8 -15 5 -15 3 2 -14 11 -11 26 -18 34
-15 11 4 10 7 -4 12 -17 6 -17 7 -1 13 9 4 14 11 11 17 -9 15 -25 12 -25 -5z"/>
<path d="M2403 2279 c-1 -10 4 -22 10 -25 7 -4 9 -4 5 1 -4 4 -3 14 2 20 7 9
7 14 -3 18 -8 3 -13 -3 -14 -14z"/>
<path d="M7897 2293 c-12 -12 -7 -31 9 -37 14 -5 15 -4 5 8 -10 12 -8 13 11 9
13 -3 21 -4 18 -2 -23 21 -38 28 -43 22z"/>
<path d="M7916 2223 c-6 -14 -5 -15 5 -6 7 7 10 15 7 18 -3 3 -9 -2 -12 -12z"/>
<path d="M7877 2175 c5 -16 30 -15 30 1 0 7 -8 12 -18 11 -9 -1 -15 -6 -12
-12z"/>
<path d="M2415 2170 c3 -5 11 -10 16 -10 6 0 7 5 4 10 -3 6 -11 10 -16 10 -6
0 -7 -4 -4 -10z"/>
<path d="M7851 2094 c0 -11 3 -14 6 -6 3 7 2 16 -1 19 -3 4 -6 -2 -5 -13z"/>
<path d="M2485 2040 c-3 -5 1 -10 10 -10 9 0 13 5 10 10 -3 6 -8 10 -10 10 -2
0 -7 -4 -10 -10z"/>
<path d="M7776 2004 c-5 -14 -4 -15 9 -4 17 14 19 20 6 20 -5 0 -12 -7 -15
-16z"/>
<path d="M2547 1929 c7 -7 15 -10 18 -7 3 3 -2 9 -12 12 -14 6 -15 5 -6 -5z"/>
<path d="M7675 1900 c-3 -5 -1 -10 4 -10 6 0 11 5 11 10 0 6 -2 10 -4 10 -3 0
-8 -4 -11 -10z"/>
<path d="M7650 1849 c0 -11 37 -12 43 -1 3 4 -6 8 -19 8 -13 1 -24 -2 -24 -7z"/>
<path d="M2730 1790 c0 -6 7 -10 15 -10 8 0 15 2 15 4 0 2 -7 6 -15 10 -8 3
-15 1 -15 -4z"/>
<path d="M2680 1761 c0 -5 7 -12 16 -15 14 -5 15 -4 4 9 -14 17 -20 19 -20 6z"/>
<path d="M7600 1761 c0 -6 5 -13 10 -16 6 -3 10 1 10 9 0 9 -4 16 -10 16 -5 0
-10 -4 -10 -9z"/>
<path d="M7517 1705 c-9 -23 11 -28 23 -5 8 16 8 20 -4 20 -7 0 -16 -7 -19
-15z"/>
<path d="M7560 1709 c0 -5 5 -7 10 -4 6 3 10 8 10 11 0 2 -4 4 -10 4 -5 0 -10
-5 -10 -11z"/>
<path d="M7510 1659 c0 -5 5 -7 10 -4 6 3 10 8 10 11 0 2 -4 4 -10 4 -5 0 -10
-5 -10 -11z"/>
<path d="M2800 1639 c0 -5 5 -7 10 -4 6 3 10 8 10 11 0 2 -4 4 -10 4 -5 0 -10
-5 -10 -11z"/>
<path d="M2856 1582 c-3 -5 1 -9 9 -9 8 0 12 4 9 9 -3 4 -7 8 -9 8 -2 0 -6 -4
-9 -8z"/>
<path d="M2896 1551 c-3 -5 5 -11 19 -13 30 -6 32 -2 6 12 -11 6 -22 6 -25 1z"/>
<path d="M7405 1550 c3 -5 8 -10 11 -10 2 0 4 5 4 10 0 6 -5 10 -11 10 -5 0
-7 -4 -4 -10z"/>
<path d="M7295 1499 c-4 -6 -2 -16 5 -22 10 -9 11 -9 6 0 -3 6 -1 13 6 15 9 3
9 6 1 11 -7 4 -15 2 -18 -4z"/>
<path d="M7337 1479 c7 -7 15 -10 18 -7 3 3 -2 9 -12 12 -14 6 -15 5 -6 -5z"/>
<path d="M7300 1449 c0 -5 5 -7 10 -4 6 3 10 8 10 11 0 2 -4 4 -10 4 -5 0 -10
-5 -10 -11z"/>
<path d="M3058 1433 c7 -3 16 -2 19 1 4 3 -2 6 -13 5 -11 0 -14 -3 -6 -6z"/>
<path d="M7265 1420 c-3 -5 -1 -10 4 -10 6 0 11 5 11 10 0 6 -2 10 -4 10 -3 0
-8 -4 -11 -10z"/>
<path d="M3060 1412 c0 -4 9 -8 19 -8 11 0 17 4 15 8 -3 4 -12 8 -20 8 -8 0
-14 -4 -14 -8z"/>
<path d="M7113 1328 c-13 -6 -23 -15 -23 -20 0 -7 31 8 59 29 10 7 -16 1 -36
-9z"/>
<path d="M3233 1316 c5 -15 24 -18 24 -3 0 8 -6 14 -14 14 -7 0 -12 -5 -10
-11z"/>
<path d="M7025 1260 c-3 -5 -2 -10 4 -10 5 0 13 5 16 10 3 6 2 10 -4 10 -5 0
-13 -4 -16 -10z"/>
<path d="M3338 1243 c6 -2 18 -2 25 0 6 3 1 5 -13 5 -14 0 -19 -2 -12 -5z"/>
<path d="M6956 1231 c-4 -5 -2 -12 3 -15 5 -4 12 -2 15 3 4 5 2 12 -3 15 -5 4
-12 2 -15 -3z"/>
<path d="M3390 1186 c0 -2 7 -6 15 -10 8 -3 15 -1 15 4 0 6 -7 10 -15 10 -8 0
-15 -2 -15 -4z"/>
<path d="M3586 1111 c-4 -5 1 -8 9 -7 21 3 31 16 12 16 -9 0 -18 -4 -21 -9z"/>
<path d="M6578 1063 c6 -2 9 -10 5 -16 -5 -9 -3 -9 8 -1 8 6 21 14 29 17 8 3
-1 5 -20 5 -19 0 -29 -2 -22 -5z"/>
<path d="M6619 1037 c6 -8 7 -18 3 -23 -4 -5 -3 -5 2 -1 16 13 15 37 -1 37
-12 0 -13 -3 -4 -13z"/>
<path d="M3880 1000 c0 -5 4 -10 9 -10 6 0 13 5 16 10 3 6 -1 10 -9 10 -9 0
-16 -4 -16 -10z"/>
<path d="M6482 997 c-8 -10 -6 -13 8 -14 11 -1 22 2 25 8 4 5 -2 6 -11 2 -12
-4 -15 -3 -10 5 10 16 1 15 -12 -1z"/>
<path d="M6306 942 c-3 -5 1 -9 9 -9 8 0 12 4 9 9 -3 4 -7 8 -9 8 -2 0 -6 -4
-9 -8z"/>
<path d="M4250 920 c0 -5 5 -10 10 -10 6 0 10 5 10 10 0 6 -4 10 -10 10 -5 0
-10 -4 -10 -10z"/>
<path d="M4170 910 c0 -5 5 -10 11 -10 5 0 7 5 4 10 -3 6 -8 10 -11 10 -2 0
-4 -4 -4 -10z"/>
<path d="M5975 901 c-3 -6 3 -15 12 -21 17 -11 17 -11 1 -6 -10 3 -18 1 -18
-4 0 -13 27 -13 34 -1 7 11 -3 41 -14 41 -5 0 -11 -4 -15 -9z"/>
<path d="M4147 889 c7 -7 15 -10 18 -7 3 3 -2 9 -12 12 -14 6 -15 5 -6 -5z"/>
<path d="M4310 893 c0 -7 -7 -10 -17 -7 -15 5 -15 4 -3 -4 8 -6 18 -8 22 -6 5
3 12 -5 16 -17 l9 -23 5 22 c4 12 2 20 -2 17 -5 -3 -13 3 -19 12 -6 10 -11 13
-11 6z"/>
<path d="M4230 880 c0 -5 5 -10 10 -10 6 0 10 5 10 10 0 6 -4 10 -10 10 -5 0
-10 -4 -10 -10z"/>
<path d="M5936 869 c-11 -11 -15 -19 -9 -19 12 0 38 28 32 34 -2 2 -13 -5 -23
-15z"/>
<path d="M6096 855 c4 -8 7 -15 9 -15 2 0 5 7 9 15 3 9 0 15 -9 15 -9 0 -12
-6 -9 -15z"/>
<path d="M6256 855 c-11 -8 -17 -17 -14 -20 2 -3 13 4 23 15 21 23 18 25 -9 5z"/>
<path d="M4406 845 c4 -8 8 -15 10 -15 2 0 4 7 4 15 0 8 -4 15 -10 15 -5 0 -7
-7 -4 -15z"/>
<path d="M4433 835 c0 -8 4 -15 9 -15 4 0 8 4 8 9 0 6 -4 12 -8 15 -5 3 -9 -1
-9 -9z"/>
<path d="M4465 830 c-3 -5 1 -10 10 -10 9 0 13 5 10 10 -3 6 -8 10 -10 10 -2
0 -7 -4 -10 -10z"/>
<path d="M4585 830 c6 -10 4 -12 -8 -7 -10 3 -17 2 -17 -3 0 -13 27 -13 35 -1
3 5 0 13 -6 17 -8 5 -9 3 -4 -6z"/>
<path d="M5796 831 c-4 -7 -5 -15 -2 -18 9 -9 19 4 14 18 -4 11 -6 11 -12 0z"/>
<path d="M5925 830 c-3 -6 1 -7 9 -4 18 7 21 14 7 14 -6 0 -13 -4 -16 -10z"/>
<path d="M5650 819 c0 -5 5 -7 10 -4 6 3 10 8 10 11 0 2 -4 4 -10 4 -5 0 -10
-5 -10 -11z"/>
<path d="M4510 816 c0 -2 9 -6 20 -9 11 -3 18 -1 14 4 -5 9 -34 13 -34 5z"/>
<path d="M5382 811 c-7 -4 -12 -14 -10 -22 2 -8 -3 -13 -12 -11 -11 3 -12 1
-3 -8 14 -15 36 -3 29 15 -2 7 1 18 7 24 13 13 8 14 -11 2z"/>
<path d="M5405 801 c-6 -11 13 -26 22 -17 4 3 1 6 -6 6 -7 0 -9 5 -6 10 3 6 4
10 1 10 -3 0 -7 -4 -11 -9z"/>
<path d="M4571 784 c0 -11 3 -14 6 -6 3 7 2 16 -1 19 -3 4 -6 -2 -5 -13z"/>
<path d="M5108 786 c-25 -18 -23 -21 13 -21 26 -1 28 1 14 11 -12 9 -13 13 -3
17 7 3 9 6 3 6 -5 0 -18 -6 -27 -13z"/>
<path d="M5286 791 c-3 -5 1 -11 9 -14 9 -4 12 -1 8 9 -6 16 -10 17 -17 5z"/>
<path d="M5570 791 c0 -5 5 -13 10 -16 6 -3 10 -2 10 4 0 5 -4 13 -10 16 -5 3
-10 2 -10 -4z"/>
<path d="M5612 791 c-11 -7 -11 -9 0 -14 9 -3 15 1 15 9 0 8 -1 14 -1 14 -1 0
-7 -4 -14 -9z"/>
<path d="M5640 785 c0 -8 4 -15 10 -15 5 0 7 7 4 15 -4 8 -8 15 -10 15 -2 0
-4 -7 -4 -15z"/>
<path d="M4598 783 c7 -3 16 -2 19 1 4 3 -2 6 -13 5 -11 0 -14 -3 -6 -6z"/>
<path d="M4897 769 c7 -7 15 -10 18 -7 3 3 -2 9 -12 12 -14 6 -15 5 -6 -5z"/>
<path d="M5260 771 c0 -6 4 -13 10 -16 6 -3 7 1 4 9 -7 18 -14 21 -14 7z"/>
<path d="M4775 760 c-3 -5 -1 -10 4 -10 6 0 11 5 11 10 0 6 -2 10 -4 10 -3 0
-8 -4 -11 -10z"/>
<path d="M4820 763 c8 -3 19 -11 23 -17 6 -7 7 -6 4 4 -2 8 -12 16 -23 17 -13
2 -15 1 -4 -4z"/>
<path d="M5235 750 c-3 -5 -1 -10 4 -10 6 0 11 5 11 10 0 6 -2 10 -4 10 -3 0
-8 -4 -11 -10z"/>
</g>
</svg>
